<?xml version="1.0" standalone="no"?>
<!DOCTYPE svg PUBLIC "-//W3C//DTD SVG 20010904//EN"
 "http://www.w3.org/TR/2001/REC-SVG-20010904/DTD/svg10.dtd">
<svg version="1.0" xmlns="http://www.w3.org/2000/svg"
 width="2560.000000pt" height="1440.000000pt" viewBox="0 0 2560.000000 1440.000000"
 preserveAspectRatio="xMidYMid meet">

<g transform="translate(0.000000,1440.000000) scale(0.100000,-0.100000)"
fill="#000000" stroke="none">
<path d="M14201 10358 c-23 -29 -90 -104 -147 -165 -58 -62 -103 -117 -99
-123 3 -5 3 -15 -1 -22 -4 -7 -9 -21 -10 -32 -11 -90 -12 -131 -3 -142 7 -8 7
-14 -1 -19 -5 -3 -10 -1 -10 6 0 7 -3 9 -6 6 -4 -4 -1 -13 6 -22 9 -11 9 -15
1 -15 -7 0 -9 -4 -6 -10 3 -5 8 -24 10 -41 3 -25 1 -30 -13 -24 -14 5 -15 4
-4 -6 6 -7 12 -20 12 -28 0 -12 -2 -13 -8 -3 -5 7 -8 -11 -8 -40 1 -29 5 -59
9 -65 5 -8 4 -13 -2 -13 -6 0 -7 -7 -4 -17 4 -11 3 -14 -5 -9 -17 10 -15 0 4
-18 14 -14 14 -17 0 -22 -13 -5 -13 -9 2 -32 9 -14 11 -23 5 -19 -13 8 -15 -2
-17 -88 -1 -16 2 -35 7 -41 4 -6 3 -24 -3 -39 -6 -15 -8 -30 -5 -33 2 -3 -1
-12 -8 -20 -10 -13 -9 -15 5 -9 15 5 16 2 8 -19 -12 -30 -13 -47 -2 -41 4 3 7
-5 7 -18 0 -15 -5 -21 -15 -18 -8 3 -4 -5 9 -16 13 -12 18 -21 12 -21 -9 0 -9
-6 -1 -22 11 -22 10 -22 -4 -4 -26 32 -30 10 -5 -25 13 -18 18 -30 13 -26 -6
3 -15 -3 -22 -14 -7 -10 -8 -19 -3 -19 5 0 12 6 15 13 3 6 3 2 0 -11 -3 -13 0
-30 8 -39 7 -9 8 -14 3 -11 -6 4 -16 -2 -23 -12 -8 -13 -8 -21 -1 -26 6 -3 8
-13 5 -21 -4 -9 -1 -22 5 -30 7 -7 9 -16 5 -20 -3 -3 -6 -1 -6 6 0 7 -5 9 -10
6 -8 -5 -7 -11 1 -21 6 -7 9 -20 6 -29 -4 -8 -2 -17 3 -20 6 -4 10 -12 10 -18
0 -7 -4 -6 -10 3 -5 8 -12 11 -16 7 -4 -3 -1 -14 6 -23 11 -13 11 -17 1 -24
-10 -6 -10 -9 -1 -15 9 -6 9 -9 -1 -16 -11 -6 -11 -11 -1 -21 17 -17 15 -31
-5 -24 -15 6 -15 4 2 -14 10 -11 13 -20 6 -20 -7 0 -9 -9 -5 -26 5 -21 4 -25
-6 -19 -10 6 -11 4 -4 -6 12 -19 13 -63 1 -70 -5 -4 -6 -13 -1 -20 12 -20 14
-59 3 -59 -6 0 -7 -5 -4 -10 12 -19 14 -70 4 -70 -6 0 -7 -5 -2 -12 11 -18 11
-62 0 -70 -7 -4 -4 -16 7 -32 10 -16 12 -26 5 -26 -6 0 -9 -9 -6 -20 3 -11 0
-20 -6 -20 -8 0 -8 -3 -2 -8 14 -10 17 -52 4 -52 -8 0 -8 -5 1 -15 7 -8 9 -22
6 -31 -4 -9 -2 -22 4 -29 7 -9 7 -15 1 -19 -5 -4 -8 -20 -6 -36 2 -17 -1 -30
-7 -30 -5 0 -7 -7 -4 -15 3 -8 9 -22 12 -30 5 -11 2 -13 -11 -9 -15 6 -15 4
-4 -14 10 -16 11 -24 2 -33 -9 -9 -8 -17 4 -35 16 -25 6 -32 -16 -11 -8 7 -7
2 2 -13 11 -16 13 -30 7 -40 -5 -8 -5 -22 2 -33 7 -13 7 -22 0 -29 -7 -7 -5
-19 6 -36 10 -15 11 -23 5 -19 -8 5 -13 3 -13 -5 0 -8 6 -20 13 -27 10 -11 8
-11 -13 -1 -24 12 -24 12 -9 -6 31 -37 34 -47 8 -34 l-23 13 18 -28 c17 -25
17 -27 2 -22 -14 6 -13 1 5 -24 l22 -31 -23 12 -23 12 23 -32 23 -32 -22 12
-22 11 18 -27 c17 -27 17 -28 -1 -21 -18 7 -18 6 -1 -19 16 -24 16 -26 1 -21
-15 6 -15 4 0 -18 16 -24 15 -25 -1 -18 -20 7 -15 -6 14 -41 15 -18 15 -18 -6
-7 -27 14 -30 5 -6 -21 14 -16 15 -18 1 -13 -12 5 -15 0 -14 -22 1 -15 5 -34
9 -40 5 -8 3 -13 -3 -13 -7 0 -9 -8 -5 -20 4 -11 2 -20 -4 -20 -6 0 -11 5 -11
12 0 6 -3 8 -7 5 -3 -4 4 -19 18 -33 17 -18 19 -23 6 -18 -16 6 -24 -13 -17
-41 2 -5 3 -19 4 -30 1 -11 5 -26 10 -33 4 -7 5 -16 1 -20 -3 -3 -10 0 -15 8
-6 8 -10 10 -10 5 0 -6 5 -16 12 -23 7 -7 8 -12 2 -12 -11 0 -12 -50 -1 -67 5
-7 5 -13 0 -13 -10 0 -11 -55 -1 -65 3 -4 3 -19 -2 -34 -4 -15 -6 -44 -3 -65
2 -26 0 -35 -8 -31 -8 6 -8 2 0 -14 8 -14 8 -21 1 -21 -8 0 -8 -6 0 -20 8 -14
8 -20 0 -20 -7 0 -7 -7 1 -21 8 -15 8 -19 0 -15 -14 9 -14 0 0 -27 9 -18 9
-20 -2 -9 -20 19 -34 14 -17 -5 8 -10 19 -25 23 -33 6 -12 5 -13 -6 -2 -21 19
-34 14 -16 -6 10 -10 17 -23 17 -28 0 -5 -4 -2 -10 6 -5 8 -12 11 -16 7 -4 -4
-2 -13 4 -19 7 -7 12 -18 12 -26 0 -12 -3 -12 -17 -1 -10 7 -7 1 6 -14 14 -15
21 -30 18 -34 -4 -3 -7 -1 -7 5 0 7 -4 12 -9 12 -10 0 -8 -51 2 -68 4 -5 2
-12 -4 -14 -9 -3 -8 -10 2 -25 11 -18 10 -24 -2 -39 -12 -16 -12 -17 1 -12 11
4 15 -1 15 -18 0 -21 -1 -21 -17 -7 -22 20 -24 1 -3 -21 17 -17 20 -36 5 -36
-5 0 -10 -5 -10 -11 0 -6 6 -9 13 -6 8 3 12 -5 12 -24 0 -15 -6 -34 -12 -40
-9 -9 -13 -9 -13 -2 0 6 -8 14 -17 17 -14 6 -12 2 5 -17 26 -28 32 -57 7 -37
-13 11 -14 10 -9 -4 3 -9 11 -16 16 -16 6 0 7 -7 4 -16 -3 -9 4 -30 16 -47 19
-27 19 -30 3 -17 -17 13 -18 13 -13 -1 4 -9 2 -21 -4 -27 -6 -6 -6 -12 1 -16
17 -11 13 -29 -4 -22 -20 7 -19 -4 3 -21 15 -13 15 -14 0 -9 -10 3 -15 0 -13
-7 3 -7 9 -48 15 -92 6 -44 15 -102 21 -130 5 -27 11 -59 13 -70 25 -128 120
-440 176 -580 42 -107 153 -316 221 -419 21 -32 39 -60 39 -63 0 -7 86 -119
161 -208 60 -72 215 -227 264 -265 11 -8 43 -34 70 -56 163 -134 479 -310 665
-371 25 -8 52 -17 60 -20 8 -4 17 -7 20 -8 3 0 34 -10 70 -22 101 -34 291 -78
375 -88 28 -3 64 -8 80 -10 56 -8 140 -15 243 -20 79 -3 101 -2 95 8 -5 9 -3
9 8 1 8 -6 47 -12 87 -13 58 -1 72 1 66 11 -6 10 -5 11 7 1 16 -13 102 -11
204 3 28 4 58 7 68 8 9 0 17 4 17 8 0 3 16 4 35 1 24 -4 35 -2 35 6 0 7 5 9
10 6 6 -4 24 -3 41 0 29 7 30 8 14 31 -17 27 -11 32 12 9 8 -8 19 -12 25 -9 6
4 6 9 -3 14 -7 5 6 8 32 8 76 0 79 1 72 18 -5 14 -3 15 15 5 32 -17 37 -13 11
9 -13 10 -19 19 -12 20 6 0 15 -5 18 -10 9 -15 22 -12 44 11 15 17 23 19 39
10 18 -9 19 -8 14 12 -4 18 -3 20 9 11 10 -8 21 -8 42 0 15 7 24 15 21 19 -4
4 -2 7 4 7 6 0 14 -5 18 -11 10 -17 25 12 18 34 -6 18 -5 18 22 1 l27 -18 -12
23 c-12 21 -11 22 8 16 13 -4 21 -2 21 6 0 9 4 8 15 -1 17 -14 21 0 5 16 -7 7
0 10 24 9 24 0 32 3 29 12 -3 7 0 13 6 13 6 0 11 -6 11 -12 0 -10 2 -10 8 0 5
7 16 10 25 6 10 -3 17 -1 17 5 0 6 -4 11 -10 11 -5 0 -10 4 -10 8 0 5 15 7 32
6 18 -1 39 3 46 9 10 8 16 7 23 -4 5 -8 9 -9 9 -3 0 5 -6 16 -12 24 -8 8 -3 7
14 -3 26 -16 27 -16 21 0 -5 12 -2 15 10 10 12 -4 14 -2 10 10 -5 12 -3 14 6
8 8 -4 17 -2 21 6 7 10 12 10 26 -2 16 -13 16 -12 4 11 -12 23 -12 24 3 11 15
-12 17 -11 17 4 0 12 6 16 20 12 13 -3 18 -1 13 6 -4 6 0 8 10 4 12 -4 14 -2
10 10 -4 11 -2 14 5 9 7 -4 12 -2 12 3 0 6 7 11 16 11 10 0 14 5 10 16 -3 8
-2 12 4 9 5 -3 21 -3 35 1 22 5 24 9 13 22 -11 13 -10 14 9 3 19 -10 22 -9 17
4 -5 11 -2 14 12 8 13 -5 16 -3 11 10 -4 12 -2 14 10 10 13 -5 15 -2 9 13 -6
15 -5 17 5 6 17 -16 30 -16 27 1 -2 7 5 11 16 9 12 -2 16 1 10 9 -5 9 -2 10
10 6 9 -4 15 -3 12 2 -3 4 6 14 19 21 14 7 25 17 25 22 0 4 7 8 15 8 8 0 15 5
15 10 0 6 3 9 8 9 27 -4 44 2 38 16 -3 8 -1 15 5 15 6 0 9 6 6 13 -4 10 2 13
21 10 15 -2 21 0 15 3 -21 9 -15 21 15 29 15 4 21 10 15 12 -7 3 -13 9 -13 15
0 6 6 5 15 -2 11 -9 13 -16 5 -24 -5 -5 -10 -14 -10 -18 0 -15 15 -8 28 13 11
18 11 24 -4 40 -21 23 -12 25 11 3 19 -20 33 -11 16 10 -15 17 -7 36 15 36 8
0 14 5 14 11 0 6 7 8 16 5 8 -3 12 -2 9 3 -3 6 20 26 51 47 72 48 307 257 404
360 86 91 290 373 374 517 189 323 327 700 387 1057 43 257 43 277 40 2260 -2
1042 -5 1898 -8 1903 -2 4 -336 7 -742 7 l-738 0 -32 -40 c-17 -22 -70 -81
-116 -130 -82 -87 -92 -107 -86 -157 1 -7 -3 -13 -9 -13 -14 0 -13 -27 3 -33
8 -4 7 -6 -4 -6 -10 -1 -15 -12 -16 -38 -1 -21 -6 -39 -12 -41 -6 -2 -11 -8
-11 -13 0 -6 4 -8 9 -5 5 3 11 -8 13 -25 3 -22 1 -29 -9 -25 -9 4 -9 -1 3 -19
9 -14 21 -25 27 -25 6 0 8 -3 5 -6 -4 -3 -17 0 -30 7 -19 10 -21 10 -12 -2 15
-19 16 -82 2 -73 -6 4 -4 -3 5 -15 8 -13 13 -30 10 -37 -3 -8 0 -21 7 -29 11
-13 10 -14 -6 -9 -18 7 -18 7 -1 -13 21 -24 22 -37 2 -29 -12 4 -13 2 -6 -13
6 -10 17 -21 26 -25 8 -3 15 -10 15 -16 0 -6 -7 -4 -16 4 -22 23 -37 20 -22
-4 7 -11 16 -20 19 -20 4 0 9 -7 13 -15 4 -12 0 -12 -21 2 -18 12 -24 13 -19
4 5 -7 9 -23 10 -34 1 -11 8 -23 16 -25 13 -5 13 -3 1 11 -7 10 -9 17 -3 17
15 0 17 -16 16 -145 -2 -199 -2 -199 -19 -185 -8 7 -15 8 -15 2 0 -5 7 -15 15
-22 8 -7 15 -17 15 -22 0 -6 -7 -5 -15 2 -12 10 -15 10 -15 -3 0 -9 8 -21 18
-27 15 -10 15 -10 -3 -6 -19 6 -20 1 -20 -143 0 -82 3 -152 7 -156 4 -4 2 -15
-4 -25 -9 -14 -9 -22 0 -32 6 -8 7 -19 2 -28 -5 -8 -4 -22 2 -33 7 -14 7 -17
-1 -13 -17 11 -13 -15 6 -36 16 -18 16 -18 -1 -12 -16 6 -17 4 -7 -14 8 -15 8
-21 -1 -24 -7 -3 -8 -9 -3 -19 14 -21 15 -42 3 -56 -7 -9 -7 -17 2 -28 9 -11
9 -15 1 -15 -8 0 -9 -5 -1 -19 7 -14 6 -21 -3 -24 -9 -3 -9 -8 2 -21 12 -14
12 -16 -4 -10 -16 7 -16 5 1 -21 17 -26 17 -28 2 -23 -14 6 -16 2 -13 -22 2
-16 6 -34 10 -40 3 -5 2 -10 -4 -10 -6 0 -8 -7 -4 -16 3 -9 0 -20 -8 -25 -8
-5 -9 -9 -3 -9 6 0 10 -16 9 -37 -1 -21 3 -44 8 -51 7 -9 7 -16 1 -20 -12 -9
-15 -62 -3 -62 5 0 9 -8 9 -17 0 -15 -2 -16 -10 -3 -9 13 -10 13 -10 -1 0 -8
5 -20 12 -27 9 -9 9 -12 -2 -12 -11 0 -11 -3 -2 -12 7 -7 12 -19 12 -27 0 -14
-1 -14 -10 -1 -8 13 -10 13 -10 -2 0 -9 5 -20 10 -23 6 -3 10 -11 10 -16 0 -6
-6 -7 -12 -3 -8 5 -7 0 2 -11 12 -14 12 -19 2 -23 -10 -3 -9 -10 4 -30 16 -24
16 -25 -2 -18 -15 6 -17 5 -6 -5 6 -7 12 -28 12 -47 0 -24 -4 -31 -12 -26 -10
6 -10 4 0 -7 15 -16 16 -43 1 -33 -8 5 -8 1 0 -14 14 -27 14 -35 -1 -26 -8 5
-7 0 2 -11 11 -14 12 -19 3 -22 -9 -3 -10 -10 -3 -24 8 -14 7 -19 -1 -19 -8 0
-8 -4 -1 -12 12 -15 11 -68 -2 -68 -5 0 -4 -6 1 -12 13 -17 15 -88 2 -88 -5 0
-2 -11 7 -25 9 -14 12 -29 8 -37 -5 -7 -7 -21 -5 -32 2 -13 -1 -16 -11 -11
-10 6 -11 5 0 -6 6 -7 12 -19 12 -27 0 -8 -5 -10 -12 -6 -10 6 -10 4 0 -7 6
-7 12 -19 12 -27 0 -8 -5 -10 -12 -6 -10 6 -10 4 0 -7 15 -16 16 -43 1 -33 -6
3 -3 -5 6 -20 10 -14 13 -26 7 -26 -6 0 -13 6 -15 13 -4 9 -6 8 -6 -2 -1 -7
10 -24 25 -37 27 -26 25 -30 -7 -13 -20 10 -20 10 -4 -15 10 -14 21 -23 26
-20 5 3 9 -3 9 -12 0 -16 -1 -16 -18 -1 -27 25 -37 20 -18 -8 15 -23 15 -26 1
-31 -14 -6 -14 -9 0 -30 8 -13 15 -27 15 -31 0 -4 -4 -1 -10 7 -14 22 -22 6
-11 -24 6 -14 7 -26 3 -26 -4 0 -7 -11 -7 -25 0 -14 5 -25 10 -25 6 0 4 -4 -4
-9 -12 -8 -12 -12 -2 -25 9 -11 10 -16 2 -16 -12 0 -10 -27 2 -47 5 -8 3 -13
-3 -13 -7 0 -9 -8 -5 -19 3 -11 1 -22 -5 -26 -7 -4 -7 -12 0 -24 6 -13 5 -24
-4 -36 -14 -19 -9 -66 8 -77 8 -6 7 -11 -2 -17 -8 -4 -14 -25 -14 -45 0 -20
-4 -39 -9 -42 -5 -3 -6 -11 -2 -17 11 -17 10 -71 -1 -79 -6 -4 -10 -23 -10
-42 0 -20 -4 -36 -9 -36 -5 0 -7 -6 -4 -13 2 -7 0 -37 -5 -67 -5 -30 -9 -67
-9 -83 0 -15 -4 -25 -8 -23 -4 3 -7 -10 -7 -28 1 -19 5 -32 10 -28 5 3 7 -1 4
-9 -2 -8 -15 -44 -28 -81 -13 -38 -27 -68 -32 -68 -4 0 -8 -5 -8 -12 0 -27
-90 -159 -159 -230 -110 -116 -238 -187 -433 -239 -93 -26 -277 -35 -399 -20
-182 21 -404 113 -545 225 -276 218 -412 510 -434 931 -4 77 -8 970 -9 1984
-1 1014 -4 1847 -7 1852 -3 5 -328 9 -753 9 l-747 0 -43 -52z m4330 2 c225 0
309 -3 304 -11 -5 -8 -94 -9 -314 -5 -334 6 -332 6 -325 18 3 5 10 6 15 3 5
-4 149 -6 320 -5z m344 -18 c-3 -3 -11 0 -18 7 -9 10 -8 11 6 5 10 -3 15 -9
12 -12z m676 6 c1 -7 1 -16 0 -20 0 -4 -1 -162 -1 -352 -1 -213 -5 -346 -10
-346 -6 0 -10 51 -10 123 0 226 -9 542 -15 560 -6 15 -27 17 -219 18 -325 2
-406 6 -406 18 0 6 135 10 330 11 262 0 330 -2 331 -12z m-3 -773 c-3 -55 -18
-60 -18 -7 0 34 6 52 16 52 2 0 3 -20 2 -45z m2 -115 c0 -5 -4 -10 -10 -10 -5
0 -10 5 -10 10 0 6 5 10 10 10 6 0 10 -4 10 -10z m-3 -57 c-3 -10 -5 -4 -5 12
0 17 2 24 5 18 2 -7 2 -21 0 -30z m3 -69 c0 -25 -4 -43 -8 -40 -7 4 -4 86 4
86 2 0 4 -21 4 -46z m-1 -345 c-1 -205 -4 -288 -12 -280 -17 17 -13 571 4 571
6 0 9 -116 8 -291z m1 -319 c0 -5 -4 -10 -10 -10 -5 0 -10 5 -10 10 0 6 5 10
10 10 6 0 10 -4 10 -10z m0 -92 c0 -5 -4 -8 -10 -8 -5 0 -10 10 -10 23 0 18 2
19 10 7 5 -8 10 -18 10 -22z m-1633 -35 c0 -21 -2 -28 -4 -15 -2 12 -9 22 -14
22 -7 0 8 26 17 30 0 0 1 -17 1 -37z m1633 -124 c0 -5 -4 -9 -10 -9 -5 0 -10
7 -10 16 0 8 5 12 10 9 6 -3 10 -10 10 -16z m-1632 -44 c-3 -3 -9 2 -12 12 -6
14 -5 15 5 6 7 -7 10 -15 7 -18z m-8 -1015 c0 -5 -5 -10 -11 -10 -5 0 -7 5 -4
10 3 6 8 10 11 10 2 0 4 -4 4 -10z m0 -50 c0 -5 -2 -10 -4 -10 -3 0 -8 5 -11
10 -3 6 -1 10 4 10 6 0 11 -4 11 -10z m0 -80 c0 -5 -2 -10 -4 -10 -3 0 -8 5
-11 10 -3 6 -1 10 4 10 6 0 11 -4 11 -10z m-3 -92 c-3 -7 -5 -2 -5 12 0 14 2
19 5 13 2 -7 2 -19 0 -25z m-4037 -78 c0 -5 -2 -10 -4 -10 -3 0 -8 5 -11 10
-3 6 -1 10 4 10 6 0 11 -4 11 -10z m4035 -40 c3 -5 1 -10 -4 -10 -6 0 -11 5
-11 10 0 6 2 10 4 10 3 0 8 -4 11 -10z m-4035 -120 c0 -5 -4 -10 -10 -10 -5 0
-10 5 -10 10 0 6 5 10 10 10 6 0 10 -4 10 -10z m0 -74 c0 -3 -4 -8 -10 -11 -5
-3 -10 -1 -10 4 0 6 5 11 10 11 6 0 10 -2 10 -4z m1880 -726 c0 -13 -1 -13
-10 0 -5 8 -10 22 -10 30 0 13 1 13 10 0 5 -8 10 -22 10 -30z m20 -42 c0 -27
97 -193 163 -279 35 -46 35 -60 -1 -23 -50 53 -80 98 -131 201 -50 100 -61
130 -41 118 6 -3 10 -11 10 -17z m407 -515 c7 -3 13 -10 13 -15 0 -13 -48 18
-99 64 -61 54 -50 56 16 2 32 -25 64 -49 70 -51z m64 -43 c31 -26 15 -26 -18
0 -14 11 -21 20 -15 20 5 0 20 -9 33 -20z m79 -45 c14 -8 21 -14 15 -14 -5 0
-21 6 -35 14 -14 8 -20 14 -15 14 6 0 21 -6 35 -14z m785 -1935 c3 -5 -1 -10
-9 -10 -9 0 -16 5 -16 10 0 6 4 10 9 10 6 0 13 -4 16 -10z m-155 -51 c0 -5 5
-7 10 -4 6 3 10 1 10 -4 0 -16 -16 -13 -30 4 -9 10 -9 15 -1 15 6 0 11 -5 11
-11z"/>
<path d="M20232 10341 c-34 -36 -89 -98 -121 -136 -51 -61 -57 -73 -49 -94 l9
-25 -22 20 c-21 18 -21 18 -12 1 12 -23 5 -69 -9 -61 -6 4 -8 -2 -3 -15 4 -13
2 -21 -6 -21 -9 0 -8 -4 1 -15 9 -11 9 -15 1 -15 -7 0 -9 -9 -5 -24 4 -17 0
-27 -13 -35 -10 -6 -12 -11 -5 -11 10 0 10 -5 2 -20 -7 -14 -7 -20 0 -20 5 0
10 -4 10 -10 0 -5 -7 -10 -16 -10 -8 0 -12 -5 -9 -10 4 -6 11 -7 17 -4 7 5 8
2 3 -6 -4 -7 -9 -23 -11 -36 -1 -12 -5 -32 -9 -44 -5 -15 -3 -20 3 -16 7 4 8
-3 3 -22 -5 -17 -5 -36 1 -47 7 -12 7 -16 0 -12 -11 8 -11 -47 1 -59 4 -4 7
-12 7 -18 0 -6 -4 -4 -10 4 -5 8 -12 11 -16 7 -4 -3 -2 -13 5 -20 12 -15 11
-43 -2 -63 -3 -6 -3 -14 1 -18 10 -10 10 -56 0 -56 -4 0 -8 -5 -8 -11 0 -6 7
-9 15 -6 11 5 12 1 4 -20 -7 -18 -6 -30 1 -37 13 -13 13 -29 0 -21 -11 7 -2
-23 12 -42 5 -7 4 -13 -4 -16 -11 -4 -11 -6 0 -6 10 -1 10 -6 2 -21 -7 -14 -8
-20 0 -20 6 0 8 -11 4 -27 -3 -16 -5 -37 -4 -48 0 -11 2 -36 3 -56 1 -26 5
-35 14 -32 7 3 13 0 13 -6 0 -6 -4 -11 -10 -11 -5 0 -10 -13 -10 -30 0 -16 5
-30 10 -30 6 0 10 -5 10 -11 0 -5 -4 -7 -10 -4 -5 3 -10 2 -10 -4 0 -5 8 -15
18 -20 13 -8 14 -12 4 -19 -10 -7 -2 -19 30 -50 24 -23 44 -38 46 -32 2 6 12
6 25 -2 12 -6 29 -13 37 -14 8 -1 24 -5 34 -9 15 -6 17 -5 11 5 -5 9 -4 11 4
6 7 -5 23 -10 37 -12 13 -2 35 -5 49 -7 14 -3 28 0 31 5 3 4 11 5 17 1 17 -11
51 -10 59 1 4 6 12 5 21 -3 11 -8 17 -9 22 -1 5 8 10 8 20 0 10 -8 15 -8 20 0
5 8 10 8 20 0 9 -7 21 -7 40 0 19 7 31 7 40 0 9 -7 21 -7 40 0 20 8 31 7 42
-2 11 -9 16 -9 24 3 8 12 11 11 20 -3 5 -10 15 -18 22 -18 7 0 6 4 -3 10 -8 5
-11 12 -7 16 3 4 12 2 19 -3 7 -6 27 -10 45 -8 20 1 30 -2 26 -8 -4 -6 0 -8 9
-5 8 4 21 2 29 -2 8 -6 16 -4 21 3 6 9 8 9 8 0 0 -7 7 -13 15 -13 9 0 27 -12
41 -27 20 -23 23 -24 15 -6 -17 35 -13 38 11 8 15 -19 18 -30 10 -33 -7 -2 -3
-12 12 -25 14 -14 22 -32 21 -47 -1 -14 3 -28 8 -32 7 -4 6 -12 -2 -22 -13
-15 -8 -21 13 -17 5 1 4 -4 -2 -12 -9 -10 -8 -19 4 -35 9 -13 11 -22 5 -22
-15 0 -14 -43 2 -59 10 -11 9 -14 -1 -18 -10 -4 -10 -10 3 -29 9 -14 13 -29
10 -35 -4 -5 -1 -17 6 -25 10 -13 10 -17 0 -24 -11 -6 -11 -9 0 -13 10 -4 10
-6 2 -6 -18 -1 -16 -21 4 -43 15 -17 15 -18 -2 -18 -17 0 -17 -1 1 -22 10 -12
14 -18 7 -15 -15 9 -27 -9 -12 -18 5 -4 8 -13 5 -20 -3 -8 0 -16 7 -19 9 -3 8
-5 -1 -5 -10 -1 -10 -6 -2 -21 9 -16 8 -20 -6 -20 -14 0 -15 -2 -3 -17 12 -15
12 -16 -4 -10 -16 6 -16 5 0 -20 15 -23 15 -26 2 -21 -12 5 -15 -1 -13 -23 1
-16 8 -37 16 -46 11 -15 11 -16 -4 -10 -12 4 -15 2 -11 -9 3 -8 -1 -22 -8 -31
-8 -9 -9 -14 -4 -11 6 4 17 -3 24 -14 11 -18 11 -20 -3 -15 -8 3 -18 1 -22 -5
-5 -7 -2 -8 6 -3 10 6 12 3 8 -13 -4 -15 -2 -19 9 -15 13 5 13 3 2 -15 -10
-17 -10 -23 1 -36 7 -9 10 -20 6 -23 -4 -4 -11 -1 -16 7 -6 8 -10 10 -10 4 0
-6 7 -17 15 -24 12 -10 13 -15 4 -21 -10 -6 -10 -11 1 -24 12 -14 12 -18 -1
-26 -11 -7 -10 -9 6 -9 11 0 16 -4 10 -8 -11 -8 -12 -58 0 -84 4 -11 3 -18 -3
-18 -6 0 -13 6 -15 13 -4 8 -6 7 -6 -4 -1 -8 5 -21 11 -27 10 -10 10 -15 -1
-21 -10 -7 -10 -10 -1 -16 9 -6 9 -9 -1 -15 -10 -7 -10 -12 2 -26 11 -13 11
-18 1 -21 -6 -3 -10 -9 -6 -14 3 -5 2 -9 -3 -9 -4 0 -8 -11 -8 -24 0 -15 5
-22 13 -19 6 3 12 0 12 -6 0 -6 -5 -11 -11 -11 -8 0 -7 -6 2 -17 10 -11 10
-14 2 -9 -9 5 -13 0 -13 -14 0 -14 -4 -19 -12 -14 -7 4 -1 -8 12 -26 20 -29
21 -33 6 -27 -17 7 -18 6 -2 -17 10 -16 12 -27 5 -31 -7 -5 -7 -11 1 -20 8
-10 7 -14 -2 -17 -10 -4 -10 -9 2 -23 13 -17 13 -18 -1 -13 -13 5 -16 2 -11
-15 2 -12 9 -28 15 -34 6 -9 6 -13 -1 -13 -5 0 -12 -9 -15 -19 -3 -14 -1 -18
10 -14 15 6 14 -17 -1 -29 -6 -4 -4 -13 4 -22 7 -9 10 -20 6 -23 -4 -4 -11 -1
-16 7 -15 24 -11 -2 5 -34 13 -25 13 -27 0 -22 -19 7 -19 -8 0 -27 13 -13 13
-16 -1 -21 -10 -4 -13 -2 -8 6 5 7 3 8 -5 3 -9 -5 -10 -10 -2 -18 15 -15 14
-40 -1 -30 -7 4 -5 -5 5 -20 15 -23 15 -27 2 -27 -18 0 -20 -17 -2 -23 9 -3 9
-7 -2 -20 -7 -10 -9 -17 -3 -17 5 0 9 -11 8 -24 -1 -20 -4 -22 -15 -13 -12 9
-13 9 -7 0 12 -21 17 -85 6 -78 -14 9 -12 -8 3 -24 10 -11 9 -14 -1 -18 -6 -3
-10 -9 -6 -14 3 -5 6 -31 8 -58 1 -40 -1 -48 -14 -44 -10 3 -11 2 -4 -4 11 -8
25 -85 14 -78 -3 2 -4 -49 -2 -113 1 -65 2 -128 1 -142 0 -14 0 -32 0 -40 1
-8 1 -30 1 -48 0 -17 4 -42 10 -55 10 -20 10 -20 -3 -5 -20 25 -29 10 -10 -18
12 -19 12 -24 2 -24 -10 0 -10 -3 -1 -12 7 -7 12 -17 12 -23 0 -5 -5 -3 -10 5
-9 13 -10 13 -10 0 0 -9 7 -25 15 -38 15 -20 15 -21 -2 -15 -15 5 -16 3 -5 -8
13 -14 17 -33 5 -26 -11 7 -10 -45 1 -61 4 -7 5 -16 2 -19 -3 -4 -6 -1 -6 6 0
7 -5 9 -10 6 -6 -4 -7 -12 -3 -18 9 -14 12 -57 3 -57 -8 0 -5 -135 4 -148 4
-7 3 -12 -2 -12 -11 0 -9 -50 2 -68 4 -7 3 -12 -1 -12 -10 0 -10 -131 0 -147
4 -6 1 -13 -5 -16 -10 -4 -11 -7 0 -18 17 -18 15 -32 -4 -25 -13 5 -14 3 -7
-6 5 -7 9 -67 9 -133 -1 -73 2 -123 9 -127 6 -5 5 -8 -3 -8 -8 0 -10 -8 -6
-26 6 -22 4 -25 -7 -19 -12 8 -12 6 0 -8 7 -9 10 -17 6 -17 -4 0 -2 -6 4 -14
9 -11 9 -15 0 -18 -9 -3 -9 -9 1 -27 10 -19 10 -25 -1 -32 -10 -6 -10 -10 0
-23 8 -9 9 -21 4 -33 -11 -21 -9 -189 2 -216 4 -10 5 -21 1 -24 -3 -4 1 -17
10 -31 9 -13 11 -21 5 -17 -13 7 -10 -52 3 -73 4 -7 2 -12 -4 -12 -8 0 -8 -6
0 -20 9 -16 8 -19 -7 -13 -16 6 -16 5 0 -17 19 -28 22 -44 6 -34 -8 5 -8 1 0
-14 13 -25 14 -35 2 -28 -5 4 -4 -5 2 -19 7 -14 15 -25 20 -25 4 0 7 -5 7 -12
0 -6 -10 -3 -21 8 -22 19 -22 19 -10 -3 14 -28 14 -36 -1 -27 -10 6 -10 4 -2
-7 14 -17 15 -81 1 -72 -5 3 -4 -4 2 -15 6 -11 11 -23 11 -27 0 -3 -5 -3 -11
1 -8 4 -8 0 0 -15 9 -16 9 -21 0 -21 -8 0 -8 -4 1 -15 7 -8 9 -22 6 -31 -4
-11 2 -26 16 -41 17 -18 18 -23 5 -17 -10 3 -17 1 -17 -5 0 -6 3 -11 8 -11 4
0 15 -12 26 -26 l18 -26 -23 12 -24 12 23 -23 c18 -19 24 -21 31 -10 7 11 10
10 15 -5 4 -11 24 -31 46 -46 28 -20 37 -23 33 -11 -5 13 1 11 27 -7 24 -17
35 -20 38 -11 3 9 10 7 25 -6 19 -16 20 -16 8 0 -11 14 -11 17 1 17 8 0 20 -6
26 -12 10 -10 15 -10 22 2 8 12 10 12 15 -2 4 -9 13 -19 22 -22 10 -4 13 -2
10 7 -7 19 36 14 70 -8 24 -16 26 -16 14 -2 -21 27 -7 30 24 5 l28 -21 -13 23
-13 23 28 -21 c16 -12 30 -20 33 -17 3 3 -3 12 -14 20 -30 22 -6 18 27 -6 24
-17 28 -18 22 -3 -5 15 -3 15 22 -2 l28 -18 -13 23 c-13 26 -3 23 34 -8 18
-15 18 -15 6 9 -12 24 -12 24 6 9 37 -31 47 -34 34 -9 l-12 23 33 -23 c19 -13
28 -17 22 -10 -24 26 -13 31 18 9 l31 -22 -12 23 c-13 25 -5 23 35 -9 13 -10
16 -11 8 -1 -19 21 -16 35 5 18 9 -8 24 -19 32 -23 12 -6 13 -5 3 6 -19 20
-16 24 17 25 17 1 30 -2 30 -6 0 -4 7 -10 14 -13 11 -4 13 -1 8 11 -5 15 -3
15 23 -2 27 -18 28 -18 21 0 -6 16 -5 17 11 2 10 -8 25 -19 33 -23 12 -6 13
-5 3 6 -7 7 -13 16 -13 20 0 10 41 5 59 -5 8 -5 17 -3 22 5 6 11 12 9 30 -6
20 -18 22 -18 16 -2 -6 16 -5 16 21 0 26 -17 26 -17 13 0 -13 16 -11 17 22 13
20 -2 41 -7 47 -11 5 -3 10 -3 10 2 0 4 11 8 25 8 14 0 25 -4 25 -9 0 -5 7 -2
16 5 9 8 22 14 28 14 28 2 55 25 140 114 50 52 136 143 192 201 56 59 103 117
105 131 3 13 4 1178 2 2589 -1 1411 -3 2805 -3 3098 l0 533 -1252 -1 -1253 -2
-63 -67z m737 18 c341 0 621 -4 621 -9 0 -9 44 -9 -635 -13 -308 -1 -570 0
-581 4 -12 4 -26 3 -33 -4 -8 -8 -11 -5 -11 12 0 12 4 20 9 17 5 -3 288 -6
630 -7z m1782 -21 c0 -18 0 -71 -1 -118 -1 -47 -2 -328 -3 -625 -1 -569 -4
-666 -17 -645 -4 7 -7 243 -5 524 1 281 0 515 -3 520 -3 5 -7 77 -9 160 -2 83
-8 155 -13 160 -5 5 -112 11 -237 13 -211 3 -441 9 -453 13 -3 1 4 5 15 9 11
5 63 9 114 10 52 1 96 3 98 4 1 2 117 4 258 5 l255 3 1 -33z m-1126 12 c3 -5
2 -10 -4 -10 -5 0 -13 5 -16 10 -3 6 -2 10 4 10 5 0 13 -4 16 -10z m40 0 c3
-5 1 -10 -4 -10 -6 0 -11 5 -11 10 0 6 2 10 4 10 3 0 8 -4 11 -10z m335 -11
c0 -4 -7 -6 -15 -3 -8 4 -15 10 -15 15 0 4 7 6 15 3 8 -4 15 -10 15 -15z
m-235 1 c-3 -5 -12 -10 -18 -10 -7 0 -6 4 3 10 19 12 23 12 15 0z m187 -2 c-9
-9 -15 -9 -24 0 -9 9 -7 12 12 12 19 0 21 -3 12 -12z m785 -1440 c-3 -8 -6 -5
-6 6 -1 11 2 17 5 13 3 -3 4 -12 1 -19z m-1667 -472 c0 -3 -4 -8 -10 -11 -5
-3 -10 -1 -10 4 0 6 5 11 10 11 6 0 10 -2 10 -4z m5 -426 c3 -6 -1 -7 -9 -4
-18 7 -21 14 -7 14 6 0 13 -4 16 -10z"/>
<path d="M2526 10385 c-9 -10 -36 -43 -58 -73 -22 -30 -102 -118 -178 -196
-116 -119 -136 -143 -124 -154 8 -7 12 -17 9 -22 -8 -13 -18 -90 -19 -152 0
-31 -4 -54 -8 -52 -5 3 -3 -7 2 -21 6 -15 7 -32 3 -38 -4 -7 -8 -119 -9 -249
0 -131 -4 -241 -7 -245 -4 -3 -2 -13 5 -20 9 -11 9 -16 -1 -23 -10 -5 -10 -9
-2 -15 9 -5 9 -10 1 -20 -8 -9 -8 -15 0 -20 16 -10 12 -28 -6 -21 -10 4 -13 2
-7 -7 4 -6 8 -28 8 -47 1 -19 4 -41 9 -48 5 -8 1 -12 -10 -12 -14 0 -15 -3 -6
-12 7 -7 12 -19 12 -28 0 -13 -1 -13 -10 0 -5 8 -10 10 -10 4 0 -6 3 -14 7
-18 11 -11 13 -77 2 -71 -5 4 -9 1 -9 -4 0 -6 5 -11 10 -11 6 0 10 -4 10 -10
0 -5 -8 -7 -17 -3 -17 6 -17 5 0 -14 9 -11 17 -26 17 -34 0 -12 -2 -11 -10 1
-8 13 -10 12 -10 -2 0 -10 5 -18 10 -18 6 0 10 -5 10 -11 0 -6 -7 -9 -14 -6
-10 4 -13 1 -9 -9 3 -7 9 -14 14 -14 5 0 9 -8 9 -17 0 -15 -2 -16 -10 -3 -9
13 -10 13 -10 -1 0 -8 6 -21 13 -28 10 -11 10 -13 0 -7 -16 9 -16 1 -3 -25 8
-13 7 -19 0 -19 -13 0 -9 -31 5 -43 6 -6 6 -10 -2 -14 -9 -3 -10 -10 -3 -24 7
-13 7 -19 0 -19 -15 0 -12 -26 5 -40 15 -13 11 -35 -6 -25 -5 4 -9 2 -9 -3 0
-6 8 -13 17 -16 15 -6 15 -8 3 -16 -12 -7 -12 -12 -2 -22 14 -14 16 -32 3 -24
-5 4 -7 -19 -4 -54 3 -44 1 -60 -8 -60 -10 0 -10 -3 -1 -12 15 -15 16 -42 1
-32 -7 4 -7 -1 1 -16 8 -15 8 -20 1 -16 -6 4 -11 0 -11 -8 0 -9 5 -16 10 -16
6 0 10 -5 10 -11 0 -5 -5 -7 -12 -3 -8 5 -9 0 -6 -14 4 -12 2 -22 -3 -22 -6 0
-6 -7 -1 -17 5 -10 7 -24 5 -31 -3 -7 1 -19 7 -28 11 -12 10 -13 -5 -8 -15 6
-16 4 -6 -14 7 -12 8 -22 4 -22 -5 0 -8 -36 -7 -80 1 -49 -2 -77 -8 -74 -6 4
-5 -3 1 -14 14 -27 14 -35 -1 -26 -8 5 -7 0 2 -11 9 -11 11 -20 4 -22 -11 -4
-11 -54 1 -72 3 -6 2 -11 -2 -11 -10 0 -9 -53 2 -69 3 -6 3 -11 -2 -11 -8 0
-8 -63 1 -213 4 -53 2 -76 -6 -71 -5 4 -2 -5 7 -20 12 -18 13 -26 5 -26 -9 0
-8 -7 4 -25 15 -22 15 -24 0 -18 -14 5 -14 2 2 -22 19 -28 19 -29 0 -22 -18 7
-18 6 -1 -19 9 -15 12 -23 6 -20 -15 10 -14 -7 2 -23 10 -11 9 -14 -1 -18 -10
-4 -9 -9 4 -24 12 -13 13 -19 4 -19 -7 0 -10 -8 -7 -20 3 -11 1 -20 -5 -20 -5
0 -6 -5 -3 -10 4 -6 9 -27 11 -46 3 -27 1 -34 -8 -28 -10 6 -10 4 -2 -7 6 -8
11 -39 10 -69 -1 -30 2 -70 5 -87 4 -20 3 -33 -3 -33 -6 0 -7 -8 -3 -17 9 -22
13 -55 7 -66 -2 -5 -4 -107 -5 -227 0 -121 -4 -217 -9 -214 -4 3 -8 0 -8 -5 0
-6 5 -11 10 -11 6 0 10 -5 10 -11 0 -5 -4 -8 -9 -5 -5 3 -8 -39 -7 -94 0 -55
-3 -100 -7 -100 -4 0 -4 -8 1 -17 5 -10 7 -24 5 -31 -3 -7 1 -20 9 -29 9 -12
9 -15 1 -9 -8 4 -13 1 -13 -8 0 -9 4 -16 9 -16 4 0 8 -13 7 -30 -1 -16 -5 -30
-10 -30 -6 0 -5 -5 2 -12 7 -7 12 -19 12 -28 0 -13 -1 -13 -10 0 -6 9 -10 10
-10 3 0 -6 4 -15 10 -18 9 -5 10 -61 10 -340 -3 -953 3 -1568 16 -1655 5 -33
8 -36 37 -35 18 0 37 -3 44 -8 6 -4 14 -3 18 3 5 8 11 7 22 -1 11 -10 19 -10
34 -1 10 7 19 8 19 3 0 -5 15 -9 33 -8 17 0 41 -3 52 -7 16 -6 17 -6 5 3 -11
8 -6 10 23 7 21 -2 40 -6 44 -10 10 -10 25 -7 18 4 -8 13 1 13 27 -1 15 -8 19
-8 14 0 -4 6 -3 11 3 11 5 0 13 -5 16 -10 3 -6 12 -10 18 -9 9 0 8 2 -1 6 -6
2 -10 9 -6 14 3 5 11 6 17 2 16 -11 51 -10 58 1 4 5 13 5 20 0 17 -11 59 -13
59 -3 0 8 53 5 68 -5 7 -4 12 -2 12 4 0 7 8 9 21 5 37 -12 213 -13 228 -1 12
9 13 8 8 -6 -4 -12 -2 -15 9 -11 8 3 22 -1 31 -8 9 -8 14 -9 10 -3 -4 7 0 15
9 18 21 8 26 8 20 -2 -7 -11 56 -2 71 10 7 5 14 5 17 -1 7 -10 45 -9 63 2 6 4
14 3 18 -2 3 -6 24 -7 48 -4 23 3 115 6 204 7 90 1 163 5 163 9 0 5 5 5 11 1
18 -11 169 -10 169 1 0 6 3 6 8 0 4 -7 66 -11 164 -10 99 0 158 -4 158 -10 0
-6 3 -6 8 1 8 11 51 12 70 0 7 -4 12 -3 12 2 0 10 70 9 88 -2 7 -4 12 -1 12 9
0 10 4 13 13 8 16 -10 87 -11 87 0 0 4 5 5 11 2 17 -11 68 -12 72 -1 2 6 9 6
18 1 18 -12 52 -12 60 -1 4 5 13 5 20 0 18 -11 52 -11 60 0 4 5 13 5 20 1 18
-12 138 -12 142 -1 2 6 9 6 17 1 18 -11 60 -13 60 -2 0 4 5 5 11 2 17 -11 69
-12 69 -2 0 5 7 7 15 3 8 -3 15 -1 15 5 0 6 5 7 13 2 14 -9 67 -11 67 -2 0 3
16 5 35 4 19 0 35 3 35 8 0 5 7 4 16 -4 9 -7 18 -9 22 -3 4 5 44 9 89 9 46 0
83 4 83 9 0 4 12 5 28 2 20 -5 23 -4 12 4 -20 13 1 13 35 0 19 -7 24 -7 19 2
-5 8 -2 9 9 5 10 -3 17 -3 17 1 0 4 12 8 28 9 25 3 61 9 72 13 3 1 9 2 14 1 5
-1 13 4 17 10 6 10 11 10 23 -1 14 -11 16 -11 11 1 -3 9 3 15 20 16 14 1 36 3
50 4 14 1 28 6 31 11 3 5 11 5 19 -2 9 -7 16 -6 25 5 8 10 20 13 34 9 19 -6
20 -5 6 11 -14 17 -14 18 10 5 17 -9 25 -10 28 -1 2 6 8 9 13 5 5 -3 9 0 9 6
0 8 9 10 26 6 18 -5 24 -3 19 5 -5 8 -1 8 15 -1 20 -11 21 -10 9 12 -12 22
-11 22 6 8 13 -10 19 -11 22 -4 2 7 13 10 23 7 12 -3 20 0 20 6 0 7 5 9 10 6
6 -3 10 -2 10 4 0 6 6 8 14 5 8 -3 17 0 21 5 3 6 11 9 16 6 5 -4 9 -1 9 5 0 6
5 8 12 4 8 -5 9 -2 5 9 -5 12 2 18 28 23 19 3 35 11 35 16 0 5 8 7 19 3 12 -3
21 0 25 11 4 9 13 14 21 10 8 -3 15 -1 15 5 0 6 5 7 10 4 6 -3 10 -1 10 4 0 6
7 11 15 11 8 0 15 4 15 8 0 4 17 14 38 21 20 8 44 21 52 30 8 9 21 16 28 17
28 2 32 5 32 20 0 8 5 12 10 9 6 -4 17 -1 25 5 8 7 15 9 15 6 0 -4 6 -1 14 6
8 7 12 16 9 20 -2 5 4 8 15 8 10 0 29 9 42 20 13 11 30 20 38 20 9 0 12 6 8
16 -3 9 -2 12 5 9 5 -4 19 3 30 16 10 12 19 18 19 13 0 -5 5 -1 11 8 6 11 16
15 27 11 13 -5 15 -3 5 7 -9 10 -7 17 10 32 12 11 16 17 10 13 -8 -3 -13 0
-13 8 0 7 10 19 23 25 41 20 270 226 335 302 36 41 84 97 109 124 41 45 123
160 123 173 0 3 9 17 20 33 32 45 114 215 163 338 86 213 119 401 116 658 -2
225 -35 376 -121 552 -96 195 -163 288 -318 442 -66 65 -231 192 -295 226 -11
6 -60 33 -110 59 -115 61 -155 87 -155 102 0 7 44 59 98 117 285 302 458 620
519 949 24 132 24 475 -1 607 -19 96 -72 250 -87 250 -5 0 -5 7 -2 17 5 12 3
14 -7 8 -10 -6 -12 -4 -8 7 9 21 -78 179 -149 273 -84 110 -217 244 -230 231
-3 -3 -1 -12 5 -19 7 -8 9 -17 5 -21 -4 -4 -1 -4 8 -1 18 7 76 -50 60 -59 -6
-4 -11 -12 -11 -18 0 -6 7 -5 17 3 10 9 14 9 10 2 -8 -13 7 -35 68 -96 22 -22
34 -37 26 -32 -8 4 1 -14 20 -41 122 -176 180 -312 214 -507 26 -143 17 -411
-18 -557 -71 -298 -180 -496 -394 -718 -69 -72 -85 -84 -94 -72 -9 13 -10 12
-5 -3 4 -12 -5 -28 -31 -50 -67 -60 -112 -89 -125 -81 -7 4 -10 4 -6 -1 10
-11 -13 -30 -45 -39 -17 -4 -25 -11 -21 -18 4 -6 3 -8 -4 -4 -6 3 -13 2 -17
-4 -4 -6 -11 -8 -16 -5 -5 4 -9 -1 -9 -9 0 -9 -4 -16 -8 -16 -17 0 -51 -41
-46 -55 3 -8 29 -23 57 -34 29 -11 99 -41 157 -66 140 -62 141 -62 175 -82 17
-10 53 -31 80 -47 28 -16 52 -32 55 -36 3 -4 34 -26 70 -50 65 -44 77 -53 184
-145 51 -44 163 -170 206 -231 97 -139 122 -185 163 -304 56 -162 70 -299 53
-530 -4 -52 -9 -102 -12 -111 -3 -10 -7 -30 -9 -45 -14 -99 -69 -264 -87 -264
-4 0 -3 11 2 25 5 14 6 25 2 25 -4 0 -1 4 6 9 7 4 14 19 16 32 1 14 5 30 9 35
3 6 5 27 4 47 -2 23 1 33 9 30 7 -3 10 7 8 31 -1 20 1 36 6 36 5 0 7 15 6 33
-1 17 2 42 6 55 4 13 9 61 9 108 2 64 -1 88 -12 95 -10 6 -11 9 -1 9 14 0 14
108 0 116 -5 3 -6 9 -3 14 3 5 -2 37 -10 72 -20 81 -26 109 -26 130 0 9 -7 22
-14 28 -8 6 -12 17 -9 24 8 20 -91 206 -125 236 -3 3 -12 16 -19 30 -26 49
-155 185 -283 296 -34 30 -109 76 -109 67 0 -4 -7 3 -16 16 -13 18 -18 20 -25
10 -7 -11 -9 -10 -9 3 0 11 -5 15 -15 12 -8 -4 -15 -1 -15 5 0 6 -7 11 -15 11
-8 0 -15 5 -15 10 0 6 -5 10 -11 10 -5 0 -8 -4 -5 -9 4 -5 1 -11 -6 -13 -7 -3
-12 -20 -12 -40 0 -26 8 -43 32 -66 18 -17 32 -34 32 -38 0 -9 -32 17 -48 39
-16 21 -52 23 -52 2 0 -7 -8 -18 -17 -24 -10 -5 -14 -13 -10 -17 4 -4 0 -16
-10 -26 -9 -11 -11 -18 -5 -18 7 0 12 4 12 9 0 5 8 12 17 16 13 4 25 -2 40
-22 13 -15 23 -31 23 -34 0 -9 -52 -31 -58 -24 -3 3 0 5 7 5 8 0 7 5 -4 16
-12 12 -19 13 -29 5 -11 -9 -15 -9 -19 1 -4 9 -6 9 -6 1 -1 -6 7 -18 17 -25 9
-7 24 -22 32 -32 12 -16 9 -15 -17 4 -18 13 -44 25 -59 26 l-26 3 23 -25 c28
-30 32 -30 23 -1 -3 12 -5 20 -3 17 2 -3 13 -16 24 -29 18 -21 18 -24 3 -18
-23 8 -23 -8 0 -25 9 -7 24 -22 32 -33 l15 -20 -24 20 c-17 14 -25 16 -28 8
-6 -18 -23 -16 -23 1 0 8 -13 20 -29 27 -17 7 -32 20 -35 29 -3 8 -8 20 -11
26 -3 6 15 -9 41 -33 25 -24 49 -42 52 -39 9 9 -86 92 -106 92 -9 1 -26 5 -37
10 -11 4 0 -11 24 -34 50 -47 49 -72 -1 -26 -18 16 -26 20 -18 9 8 -11 22 -25
30 -32 13 -11 13 -12 0 -13 -9 0 -22 6 -30 13 -8 6 -4 0 9 -15 29 -33 21 -49
-11 -22 l-23 19 20 -25 c11 -13 30 -33 43 -43 16 -13 21 -25 17 -41 -5 -17 -4
-18 4 -6 10 13 12 13 21 0 9 -13 11 -13 20 0 8 13 11 12 24 -5 19 -24 20 -39
4 -28 -7 4 -26 8 -42 9 l-30 2 25 -19 c27 -21 39 -24 39 -9 0 6 -5 10 -12 10
-6 0 -8 3 -4 7 4 5 14 -1 22 -11 8 -11 14 -14 14 -8 0 7 7 12 15 12 18 0 20
-17 3 -23 -7 -2 -10 -8 -6 -12 4 -4 14 -2 23 5 10 8 15 9 15 1 0 -6 -4 -11
-10 -11 -5 0 -10 -4 -10 -10 0 -14 27 -12 34 3 3 6 3 1 0 -13 -3 -15 -2 -20 3
-13 7 9 16 6 36 -11 15 -13 27 -27 27 -31 0 -5 -11 2 -25 15 -14 13 -27 21
-30 18 -10 -10 6 -35 31 -48 13 -7 22 -16 19 -18 -3 -3 0 -11 6 -19 14 -17 2
-17 -14 0 -7 6 -29 33 -50 60 -21 26 -43 47 -49 47 -6 0 -17 8 -25 18 -13 15
-13 15 -3 -5 17 -36 -5 -27 -38 15 -17 20 -34 33 -38 29 -5 -4 13 -28 39 -51
26 -24 47 -48 47 -52 0 -5 -7 -1 -14 9 -9 12 -16 14 -21 7 -4 -6 -1 -17 5 -25
7 -8 9 -15 6 -15 -8 0 -22 14 -46 44 -14 18 -13 18 10 12 23 -6 23 -6 5 5 -11
7 -24 17 -28 23 -6 7 -7 4 -3 -6 7 -24 -2 -23 -23 4 -18 22 -41 18 -41 -8 0
-8 10 -14 23 -14 36 0 53 -15 38 -33 -8 -10 -9 -17 -1 -22 5 -3 10 -1 10 4 0
19 17 12 23 -9 3 -11 1 -17 -4 -14 -12 7 -63 -25 -55 -33 3 -4 15 2 27 13 21
19 21 19 40 -5 11 -13 24 -31 29 -40 5 -9 11 -13 15 -9 7 6 -13 48 -28 59 -5
3 -1 9 8 13 10 3 29 -3 46 -15 33 -23 54 -18 23 6 -12 9 -14 14 -6 15 8 0 2
14 -15 37 -25 33 -26 35 -6 25 31 -17 56 -54 42 -63 -6 -4 6 -18 30 -35 46
-33 49 -40 23 -48 -17 -6 -16 -10 12 -40 17 -18 32 -32 34 -31 5 5 -19 49 -32
58 -7 6 -5 7 6 4 10 -4 19 1 23 11 3 9 1 18 -4 20 -6 2 -9 8 -5 13 3 5 12 2
21 -7 14 -13 14 -17 2 -25 -8 -5 -9 -9 -4 -9 6 0 3 -5 -5 -10 -12 -8 -10 -14
15 -40 25 -26 27 -32 15 -40 -12 -8 -13 -13 -2 -30 7 -11 8 -20 3 -20 -5 0
-11 6 -14 13 -3 8 -9 7 -18 -6 -13 -16 -17 -15 -51 18 -23 23 -35 42 -31 52 5
12 1 14 -15 8 -24 -7 -29 6 -9 23 9 8 23 1 55 -25 23 -19 42 -40 42 -46 0 -9
-2 -9 -8 -1 -7 11 -45 34 -56 34 -6 0 19 -26 45 -47 13 -11 19 -7 39 19 l23
31 -23 -6 c-17 -4 -31 3 -60 33 -34 35 -37 41 -22 49 16 9 16 11 0 27 -16 17
-18 17 -24 0 -6 -15 -10 -14 -35 10 -32 31 -52 25 -24 -7 15 -16 16 -22 6 -28
-10 -6 -9 -10 4 -15 23 -8 27 -8 20 4 -4 6 1 7 11 3 11 -4 13 -8 6 -11 -7 -2
-12 -10 -12 -18 0 -8 -4 -14 -10 -14 -5 0 -10 -7 -10 -15 0 -8 5 -15 11 -15
11 0 69 -60 69 -72 0 -3 -9 -10 -20 -13 -17 -5 -18 -10 -9 -28 9 -20 9 -20 -4
-4 -16 19 -27 22 -27 6 0 -14 -29 -43 -36 -36 -4 3 3 16 15 28 22 24 20 39 -7
39 -15 0 -15 -2 -2 -11 13 -9 13 -10 0 -6 -8 2 -15 10 -16 18 -2 30 -6 33 -14
14 -5 -14 -2 -26 9 -39 12 -14 13 -20 4 -23 -10 -4 -10 -10 -1 -26 9 -18 5
-17 -25 8 -19 17 -36 33 -36 38 -1 11 17 9 24 -3 8 -12 25 -13 25 -1 0 11 -38
21 -56 14 -13 -5 -13 -9 1 -29 18 -28 19 -38 3 -27 -7 4 -24 9 -37 11 -19 2
-23 -1 -18 -17 4 -17 1 -19 -23 -16 -23 3 -27 0 -22 -17 4 -15 7 -17 14 -6 6
9 7 6 3 -10 -4 -13 -1 -29 5 -37 8 -9 8 -15 2 -15 -6 0 -13 6 -16 13 -4 6 -4
2 -2 -10 2 -13 1 -23 -4 -23 -12 0 -20 29 -10 35 16 10 11 25 -5 19 -8 -4 -15
-2 -15 4 0 6 6 12 13 15 6 2 9 8 5 12 -4 4 -14 0 -24 -9 -13 -13 -14 -19 -4
-31 10 -12 10 -15 0 -15 -10 0 -10 -3 0 -15 7 -8 8 -15 2 -15 -5 0 -14 6 -20
13 -10 12 -12 18 -12 37 0 6 -5 10 -11 10 -8 0 -7 -6 2 -16 12 -15 11 -16 -11
-10 l-25 8 23 -17 c21 -16 32 -43 12 -30 -5 3 -9 -2 -8 -12 4 -48 -3 -83 -16
-83 -13 0 -31 -29 -23 -37 8 -8 37 10 37 22 0 8 5 17 12 21 7 5 9 0 6 -14 -4
-15 -1 -23 12 -27 19 -6 58 -45 45 -45 -5 0 -19 10 -32 22 -28 26 -43 16 -18
-12 10 -11 15 -23 12 -27 -4 -4 -14 2 -22 13 -8 10 -15 14 -15 7 0 -6 19 -28
42 -47 23 -20 39 -38 36 -41 -2 -3 -15 6 -28 20 -27 29 -45 33 -35 8 5 -15 3
-14 -13 2 -13 14 -16 22 -8 28 8 5 7 10 -3 16 -9 6 -10 11 -2 15 14 9 15 36 1
36 -5 0 -10 -7 -10 -15 0 -8 -5 -15 -11 -15 -6 0 -9 -9 -6 -19 3 -15 1 -18
-12 -14 -9 3 -2 -6 14 -20 17 -14 26 -29 21 -34 -5 -4 -11 -2 -13 5 -6 16 -43
36 -43 23 0 -5 7 -17 17 -26 13 -13 14 -18 3 -25 -10 -6 -9 -13 4 -31 9 -13
16 -28 16 -34 0 -5 -5 -3 -10 5 -8 13 -11 13 -19 1 -14 -22 -24 24 -11 49 11
21 6 40 -11 40 -5 0 -7 -11 -3 -25 6 -25 -11 -36 -19 -12 -2 6 -2 1 0 -13 3
-14 9 -28 15 -31 6 -4 8 -14 5 -22 -3 -8 6 -26 20 -41 14 -15 22 -30 18 -34
-3 -4 -11 1 -16 10 -14 24 -39 48 -51 48 -6 0 -3 -12 7 -26 16 -25 16 -25 -5
-14 -21 11 -21 11 -5 -14 10 -14 22 -26 27 -26 6 0 5 -7 -2 -15 -7 -9 -10 -19
-6 -22 4 -4 11 -1 15 6 6 9 11 10 15 2 4 -6 2 -11 -3 -11 -15 0 -14 -30 2 -31
6 0 2 -5 -10 -11 -13 -6 -23 -17 -23 -25 0 -7 -4 -13 -10 -13 -5 0 -10 -6 -10
-14 0 -16 27 -29 41 -20 5 3 17 0 26 -6 16 -9 15 -10 -4 -5 -19 5 -22 3 -17
-12 4 -11 3 -14 -3 -7 -10 14 -53 37 -53 28 0 -12 62 -64 71 -58 5 3 6 -2 3
-11 -7 -17 -14 -13 -76 46 -26 25 -26 27 -10 45 9 11 24 28 32 38 14 18 13 18
-10 11 l-25 -8 25 21 c20 16 22 23 12 34 -8 10 -8 18 -1 25 7 7 5 12 -6 17
-10 3 -14 2 -10 -5 9 -13 -27 -8 -37 6 -4 5 -10 6 -14 2 -4 -4 -3 -12 3 -18 9
-9 9 -16 1 -29 -9 -14 -8 -22 6 -35 11 -11 15 -26 12 -39 -3 -12 -6 -24 -6
-28 0 -15 -20 -8 -20 6 0 8 -6 16 -12 19 -10 3 -10 8 1 21 8 9 11 20 7 23 -4
4 -11 1 -17 -7 -8 -13 -10 -13 -20 0 -8 12 -9 9 -3 -10 4 -14 12 -28 17 -32 8
-4 5 -13 -6 -26 -9 -10 -14 -22 -11 -25 4 -4 13 1 20 11 17 23 30 8 38 -45 6
-44 0 -53 -22 -31 -7 7 -12 8 -12 2 0 -5 5 -15 12 -22 6 -6 8 -15 4 -19 -4 -4
-11 -1 -17 7 -7 13 -10 13 -18 1 -10 -15 -26 3 -16 19 3 6 -1 7 -9 4 -20 -8
-20 -10 4 -36 11 -12 20 -16 20 -10 0 19 14 14 29 -9 11 -19 11 -21 -3 -16 -9
4 -16 2 -16 -3 0 -6 4 -10 10 -10 5 0 15 -10 21 -22 12 -23 12 -23 -10 -4 -11
11 -24 16 -28 13 -7 -8 24 -45 51 -59 16 -9 18 -8 12 8 -7 19 15 -1 107 -93
49 -48 109 -114 87 -96 -19 18 -33 16 -26 -3 3 -9 2 -12 -5 -9 -6 4 -8 14 -4
23 4 10 -8 29 -32 54 -36 36 -69 54 -43 23 7 -9 10 -18 7 -22 -4 -3 -9 2 -13
11 -6 16 -34 23 -34 9 0 -4 17 -23 38 -43 38 -36 68 -70 60 -70 -2 0 -37 35
-78 77 -41 43 -66 70 -54 60 33 -27 38 -20 10 14 -14 17 -26 34 -26 39 0 4
-13 13 -30 20 -16 7 -30 19 -30 27 0 25 -45 11 -48 -14 -4 -26 1 -28 28 -13
15 8 25 5 47 -16 26 -24 27 -25 5 -19 -17 5 -28 1 -41 -14 -10 -12 -23 -21
-29 -21 -6 0 -13 -4 -16 -9 -3 -5 5 -8 19 -7 14 0 28 9 31 19 6 18 24 24 24 7
0 -5 -5 -10 -11 -10 -5 0 -7 -4 -4 -10 3 -5 1 -10 -5 -10 -7 0 -10 -6 -7 -14
3 -8 1 -16 -5 -18 -7 -3 -8 -10 -4 -17 7 -10 10 -10 16 -1 6 9 16 6 38 -10 17
-13 34 -30 37 -38 3 -9 -7 -3 -22 12 -17 17 -34 25 -46 22 -37 -9 -69 25 -34
37 6 2 8 8 4 13 -4 5 -12 2 -18 -6 -8 -13 -10 -13 -20 0 -8 11 -12 12 -16 2
-3 -9 -13 -5 -35 13 -56 47 -48 25 13 -35 33 -33 65 -60 71 -60 6 0 5 6 -2 15
-28 34 4 12 45 -32 25 -25 48 -43 52 -39 4 4 -9 23 -30 42 -35 33 -43 44 -32
44 5 0 137 -129 154 -153 12 -15 12 -17 -4 -11 -20 8 -15 -5 13 -39 8 -9 13
-20 9 -23 -3 -3 -14 7 -24 23 -10 15 -25 34 -33 41 -13 10 -12 11 5 6 15 -5
11 2 -14 29 -40 42 -43 44 -34 20 4 -12 -3 -8 -22 10 -16 15 -36 26 -45 25 -8
-2 -29 7 -44 20 -33 25 -55 30 -36 7 7 -9 10 -19 6 -22 -4 -4 -11 -1 -16 7 -6
9 -10 10 -10 3 0 -6 8 -18 18 -25 9 -7 24 -21 32 -32 10 -13 3 -11 -24 8 -21
14 -44 26 -50 26 -6 0 -5 -4 3 -9 12 -8 12 -12 2 -25 -11 -13 -11 -19 -1 -31
7 -9 10 -19 6 -22 -4 -4 -11 -1 -16 7 -5 8 -13 11 -17 6 -4 -5 -2 -11 5 -13
14 -5 17 -33 3 -33 -5 0 -12 6 -14 13 -4 9 -8 8 -16 -3 -6 -8 -11 -19 -11 -25
0 -5 5 -3 10 5 9 13 11 13 20 0 9 -13 11 -13 20 0 8 13 11 13 19 1 7 -11 10
-9 16 8 3 11 9 21 13 21 12 0 33 -40 27 -50 -3 -6 0 -8 7 -5 7 2 26 -14 41
-36 16 -23 31 -38 34 -35 4 3 -3 16 -14 29 -34 37 -39 51 -14 38 11 -7 21 -15
21 -20 0 -4 11 -14 25 -21 28 -15 33 -30 11 -30 -8 0 -18 -5 -22 -12 -5 -8 -2
-9 9 -5 10 4 24 10 34 14 11 4 14 3 9 -5 -4 -7 -4 -12 1 -12 12 0 39 20 28 20
-5 0 -23 12 -38 25 -23 20 -26 28 -17 44 12 24 -6 71 -27 71 -10 0 -10 -6 4
-27 l17 -28 -24 20 c-14 11 -27 21 -30 23 -2 2 2 7 10 12 13 8 12 12 -5 24
-11 9 -16 16 -11 16 5 0 18 -7 28 -17 22 -19 36 -10 18 12 -8 10 -9 15 -2 15
17 0 35 -37 20 -42 -6 -2 1 -18 20 -39 16 -18 34 -31 38 -26 4 4 -3 19 -17 35
-27 31 -25 29 42 -29 46 -42 47 -43 31 -67 -26 -40 -25 -66 5 -97 24 -24 25
-26 6 -16 -12 6 -26 10 -30 9 -4 -2 -19 5 -33 14 -24 17 -24 18 -5 33 11 8 23
15 28 15 12 0 -21 58 -43 73 -11 7 -17 17 -13 20 3 4 1 7 -5 7 -20 0 -14 -17
17 -53 28 -32 29 -34 12 -48 -45 -36 -56 -38 -84 -13 -16 13 -25 24 -22 24 3
0 -3 10 -15 22 -11 12 -20 25 -20 30 0 4 -5 8 -11 8 -6 0 -1 -13 10 -29 l21
-29 -29 2 c-15 1 -36 7 -44 15 -14 11 -18 11 -23 -2 -7 -18 12 -57 28 -57 6 0
3 12 -7 27 l-18 26 29 -21 c71 -53 78 -62 47 -62 -9 0 -13 -3 -10 -7 4 -3 2
-12 -4 -20 -9 -9 -8 -13 0 -13 6 0 11 6 11 13 0 6 16 -6 35 -27 19 -22 38 -36
42 -32 4 4 -10 22 -31 40 -28 23 -36 35 -27 40 12 8 22 -1 57 -51 18 -25 10
-46 -14 -39 -10 3 -24 1 -32 -4 -13 -8 -13 -13 -2 -31 12 -18 12 -23 0 -30
-21 -14 -32 -10 -18 6 10 12 9 18 -5 31 -14 15 -18 15 -26 3 -6 -9 -12 -10
-16 -4 -5 6 -20 11 -35 12 -27 1 -27 1 -10 -25 l16 -25 -24 13 c-24 12 -24 11
-8 -5 17 -19 38 -13 38 11 0 8 5 14 10 14 13 0 13 -13 0 -26 -16 -16 25 -50
43 -35 8 6 17 8 20 4 4 -3 7 -2 7 4 0 17 29 24 53 12 20 -9 21 -9 4 5 -16 12
-16 17 -5 35 7 12 17 21 22 21 6 0 5 -5 -2 -12 -7 -7 -12 -15 -12 -19 0 -13
59 -3 77 13 18 16 19 16 31 -2 7 -12 8 -21 2 -25 -6 -3 -10 1 -10 9 0 24 -15
19 -30 -9 -15 -27 -63 -42 -101 -30 -17 6 -21 4 -16 -8 4 -10 -3 -16 -21 -20
-15 -3 -36 -9 -46 -13 -14 -5 -17 -4 -12 4 4 7 3 12 -3 12 -5 0 -13 -4 -16
-10 -3 -5 -13 -10 -21 -10 -9 0 -22 -7 -31 -15 -8 -8 -19 -13 -24 -10 -5 4 -9
1 -9 -4 0 -6 -12 -11 -27 -11 -16 0 -40 -6 -54 -14 -16 -8 -32 -10 -40 -5 -8
4 -16 4 -20 -2 -3 -6 -17 -11 -30 -13 -14 -1 -30 -5 -36 -9 -6 -4 -30 -9 -54
-11 -24 -3 -80 -12 -124 -20 -183 -33 -345 -37 -1780 -39 l-1430 -2 0 3058 c0
2453 2 3056 13 3052 7 -2 553 -5 1215 -6 1128 -2 1628 -9 1757 -23 158 -18
307 -39 329 -47 22 -9 40 -5 29 6 -14 14 -301 59 -483 75 -62 6 -715 13 -1495
17 -1328 6 -1386 5 -1404 -12z m4450 -3364 c19 15 18 2 -1 -17 -8 -9 -15 -13
-15 -11 0 3 -2 11 -3 19 -2 7 -2 9 1 5 2 -4 10 -3 18 4z m-50 -52 c19 -22 19
-22 -3 -10 -35 18 -40 13 -12 -12 14 -12 41 -40 60 -62 29 -34 25 -32 -26 14
-33 30 -60 58 -59 63 3 24 5 28 12 28 5 0 17 -10 28 -21z m37 -26 c-6 -16 -5
-16 10 -4 20 16 23 5 3 -14 -12 -12 -15 -12 -20 1 -3 9 -4 20 0 25 9 15 14 10
7 -8z m-33 -93 c6 -11 9 -20 7 -20 -2 0 -12 9 -22 20 -10 11 -13 20 -7 20 6 0
16 -9 22 -20z m-3 -40 c28 -22 48 -27 37 -8 -4 7 -3 8 4 4 9 -5 9 -13 2 -26
-15 -29 -30 -34 -48 -17 -14 15 -13 15 6 10 12 -3 22 -1 22 4 0 14 -46 36 -59
29 -7 -5 -9 -1 -5 8 8 20 11 20 41 -4z m63 10 c0 -5 -2 -10 -4 -10 -3 0 -8 5
-11 10 -3 6 -1 10 4 10 6 0 11 -4 11 -10z m-231 -33 c8 -10 7 -17 -1 -25 -8
-8 -8 -15 2 -27 16 -19 25 -19 45 1 9 9 19 13 23 10 3 -4 0 -11 -7 -15 -11 -7
-11 -10 0 -17 7 -4 14 -3 17 4 2 7 8 10 13 6 5 -3 2 -12 -6 -21 -14 -13 -18
-14 -33 -1 -9 8 -32 14 -49 13 -20 -2 -38 4 -45 13 -10 12 -10 14 0 8 7 -4 12
-2 12 8 0 8 -4 18 -10 21 -5 3 -10 12 -10 18 0 7 6 4 14 -5 7 -10 16 -15 19
-11 4 3 2 12 -4 20 -7 8 -8 13 -1 13 5 0 14 -6 21 -13z m151 -47 c0 -5 -2 -10
-4 -10 -3 0 -8 5 -11 10 -3 6 -1 10 4 10 6 0 11 -4 11 -10z m40 -26 c0 -2 -7
-4 -15 -4 -8 0 -15 4 -15 10 0 5 7 7 15 4 8 -4 15 -8 15 -10z m180 9 c0 -5 -5
-15 -10 -23 -7 -12 -9 -10 -7 8 1 19 17 33 17 15z m-246 -29 c3 -8 2 -12 -4
-9 -6 3 -10 10 -10 16 0 14 7 11 14 -7z m-114 -4 c0 -5 -4 -10 -10 -10 -5 0
-10 5 -10 10 0 6 5 10 10 10 6 0 10 -4 10 -10z m79 -39 c13 -12 12 -13 -9 -6
-25 8 -49 32 -50 49 0 8 20 -6 59 -43z m91 27 c0 -6 -6 -5 -15 2 -8 7 -15 14
-15 16 0 2 7 1 15 -2 8 -4 15 -11 15 -16z m45 -8 c3 -5 1 -10 -4 -10 -6 0 -11
5 -11 10 0 6 2 10 4 10 3 0 8 -4 11 -10z m-60 -16 c24 -16 24 -16 5 -37 -27
-28 -25 -39 10 -59 17 -9 30 -23 30 -29 0 -7 -9 -3 -20 8 -10 12 -27 24 -37
27 -18 6 -47 55 -38 64 2 3 7 -3 11 -12 3 -9 10 -16 15 -16 15 0 10 27 -6 34
-8 3 -12 12 -9 21 8 19 9 19 39 -1z m45 -49 c0 -8 5 -15 10 -15 6 0 10 -5 10
-12 0 -6 -9 -3 -20 7 -11 10 -20 13 -20 7 0 -7 -5 -12 -10 -12 -6 0 -5 8 2 20
15 24 28 26 28 5z m41 -2 c13 -16 12 -17 -3 -4 -10 7 -18 15 -18 17 0 8 8 3
21 -13z m113 -29 c3 -8 2 -12 -4 -9 -6 3 -10 10 -10 16 0 14 7 11 14 -7z m-88
-16 c-10 -6 -22 -6 -26 -2 -5 5 3 10 18 11 22 1 24 0 8 -9z m85 -21 l11 -22
-21 22 c-22 23 -28 39 -11 28 5 -3 15 -16 21 -28z m-17 -26 c-3 -3 -15 6 -27
18 l-22 24 27 -19 c14 -10 24 -21 22 -23z m-274 -11 c0 -5 -2 -10 -4 -10 -3 0
-8 5 -11 10 -3 6 -1 10 4 10 6 0 11 -4 11 -10z m160 0 c0 -5 -2 -10 -4 -10 -3
0 -8 5 -11 10 -3 6 -1 10 4 10 6 0 11 -4 11 -10z m96 -11 c19 -21 19 -21 -9
-8 -15 7 -27 16 -27 21 0 14 16 9 36 -13z m118 5 c3 -8 2 -12 -4 -9 -6 3 -10
10 -10 16 0 14 7 11 14 -7z m-83 -31 c-12 -20 -14 -14 -5 12 4 9 9 14 11 11 3
-2 0 -13 -6 -23z m-51 -42 c0 -5 -7 -12 -16 -15 -14 -5 -15 -4 -4 9 14 17 20
19 20 6z m-30 -41 c0 -6 -9 -2 -20 7 -11 10 -20 19 -20 21 0 1 9 -2 20 -8 11
-6 20 -15 20 -20z m-9 -31 c13 -26 7 -24 -22 7 -17 19 -19 23 -6 18 10 -3 22
-15 28 -25z m59 25 c0 -3 -7 -12 -15 -21 -20 -19 -32 -10 -14 11 14 15 29 21
29 10z m241 -11 c13 -16 12 -17 -3 -4 -10 7 -18 15 -18 17 0 8 8 3 21 -13z
m-21 -23 c0 -5 -2 -10 -4 -10 -3 0 -8 5 -11 10 -3 6 -1 10 4 10 6 0 11 -4 11
-10z m88 -21 c-5 -4 -2 -13 7 -23 10 -9 15 -20 11 -23 -3 -3 -14 5 -25 18 -11
13 -16 25 -11 27 5 2 6 11 3 20 -6 14 -5 15 9 2 9 -9 12 -18 6 -21z m-108 7
c0 -3 -4 -8 -10 -11 -5 -3 -10 -1 -10 4 0 6 5 11 10 11 6 0 10 -2 10 -4z
m-207 -28 c3 -8 -4 -13 -18 -13 -18 0 -21 3 -13 13 6 6 14 12 18 12 4 0 10 -6
13 -12z m422 2 c3 -5 1 -10 -4 -10 -6 0 -11 5 -11 10 0 6 2 10 4 10 3 0 8 -4
11 -10z m-161 -40 c-6 -5 -24 21 -24 34 0 6 6 1 14 -10 8 -10 12 -21 10 -24z
m264 15 c-3 -3 -9 2 -12 12 -6 14 -5 15 5 6 7 -7 10 -15 7 -18z m-127 -2 c13
-16 12 -17 -3 -4 -10 7 -18 15 -18 17 0 8 8 3 21 -13z m107 -2 c3 -8 -1 -12
-9 -9 -7 2 -15 10 -17 17 -3 8 1 12 9 9 7 -2 15 -10 17 -17z m-501 -34 c-8 -6
-4 -7 10 -4 15 3 20 1 16 -9 -3 -8 0 -14 7 -14 6 0 8 -5 5 -10 -4 -6 -17 -1
-34 12 -18 15 -24 26 -17 30 8 5 7 8 -1 8 -7 0 -13 5 -13 10 0 6 8 5 20 -2 14
-9 16 -15 7 -21z m303 23 c0 -5 -2 -10 -4 -10 -3 0 -8 5 -11 10 -3 6 -1 10 4
10 6 0 11 -4 11 -10z m170 0 c0 -5 -4 -10 -10 -10 -5 0 -10 5 -10 10 0 6 5 10
10 10 6 0 10 -4 10 -10z m-530 -14 c0 -3 -4 -8 -10 -11 -5 -3 -10 -1 -10 4 0
6 5 11 10 11 6 0 10 -2 10 -4z m515 -16 c10 -11 16 -20 13 -20 -3 0 -13 9 -23
20 -10 11 -16 20 -13 20 3 0 13 -9 23 -20z m56 -7 c-12 -20 -14 -14 -5 12 4 9
9 14 11 11 3 -2 0 -13 -6 -23z m-669 -16 c11 -21 10 -21 -12 -6 -28 19 -39 42
-16 33 9 -4 22 -16 28 -27z m98 -24 c0 -3 -9 2 -20 12 -11 10 -20 22 -20 27 0
4 9 -1 20 -12 11 -11 20 -23 20 -27z m20 43 c0 -3 -4 -8 -10 -11 -5 -3 -10 -1
-10 4 0 6 5 11 10 11 6 0 10 -2 10 -4z m130 -28 c0 -6 -6 -5 -15 2 -8 7 -15
14 -15 16 0 2 7 1 15 -2 8 -4 15 -11 15 -16z m330 -10 c0 -12 -6 -9 -26 13
-19 22 -19 22 4 8 12 -8 22 -17 22 -21z m-429 5 c13 -17 13 -17 -6 -3 -11 8
-22 16 -24 17 -2 2 0 3 6 3 6 0 17 -8 24 -17z m542 3 c3 -8 0 -19 -7 -25 -10
-9 -12 -6 -8 14 5 29 8 31 15 11z m-700 -27 l22 -21 -22 11 c-12 6 -25 16 -28
21 -11 17 5 11 28 -11z m67 12 c0 -14 -29 -21 -36 -9 -4 7 -3 8 4 4 7 -4 12
-2 12 3 0 6 5 11 10 11 6 0 10 -4 10 -9z m76 -29 c-4 -3 -11 0 -16 8 -15 24
-11 33 6 15 9 -9 13 -19 10 -23z m244 28 c0 -5 -2 -10 -4 -10 -3 0 -8 5 -11
10 -3 6 -1 10 4 10 6 0 11 -4 11 -10z m-541 -52 c10 -16 9 -17 -7 -7 -11 7
-24 20 -31 31 -10 16 -9 17 7 7 11 -7 24 -20 31 -31z m69 -7 c12 -11 22 -22
22 -25 0 -14 -17 -3 -60 35 -37 33 -39 38 -15 25 17 -8 40 -24 53 -35z m12 45
c0 -3 -4 -8 -10 -11 -5 -3 -10 -1 -10 4 0 6 5 11 10 11 6 0 10 -2 10 -4z m40
0 c0 -3 -4 -8 -10 -11 -5 -3 -10 -1 -10 4 0 6 5 11 10 11 6 0 10 -2 10 -4z
m230 -6 c-20 -13 -33 -13 -25 0 3 6 14 10 23 10 15 0 15 -2 2 -10z m82 -25 c6
-14 15 -25 20 -25 4 0 8 -6 8 -12 -1 -7 -10 -2 -20 12 -11 14 -25 31 -30 38
-8 8 -8 12 0 12 6 0 16 -11 22 -25z m-337 5 c3 -5 1 -10 -4 -10 -6 0 -11 5
-11 10 0 6 2 10 4 10 3 0 8 -4 11 -10z m67 -10 c12 -11 17 -20 11 -20 -5 0
-18 9 -28 20 -10 11 -15 20 -11 20 4 0 16 -9 28 -20z m112 4 c3 -8 2 -12 -4
-9 -6 3 -10 10 -10 16 0 14 7 11 14 -7z m141 -22 c-6 -7 -35 18 -35 31 0 5 9
2 20 -8 11 -10 18 -20 15 -23z m143 18 c12 -19 11 -20 -8 -8 -20 13 -27 28
-12 28 4 0 13 -9 20 -20z m36 4 c3 -8 2 -12 -4 -9 -6 3 -10 10 -10 16 0 14 7
11 14 -7z m-609 -33 c26 -29 27 -33 7 -22 -12 6 -27 9 -32 6 -5 -3 -7 0 -4 8
7 18 -27 32 -37 15 -4 -7 -11 -9 -14 -6 -10 10 17 36 35 35 8 -1 28 -17 45
-36z m271 11 c-4 -3 -14 2 -24 12 -16 18 -16 18 6 6 13 -6 21 -14 18 -18z
m545 11 c13 -16 12 -17 -3 -4 -10 7 -18 15 -18 17 0 8 8 3 21 -13z m-688 -8
c-3 -9 -8 -14 -10 -11 -3 3 -2 9 2 15 9 16 15 13 8 -4z m382 5 c3 -5 1 -10 -4
-10 -6 0 -11 5 -11 10 0 6 2 10 4 10 3 0 8 -4 11 -10z m365 -16 c0 -8 -5 -12
-10 -9 -6 4 -8 11 -5 16 9 14 15 11 15 -7z m-520 2 c0 -3 -4 -8 -10 -11 -5 -3
-10 -1 -10 4 0 6 5 11 10 11 6 0 10 -2 10 -4z m40 -5 c0 -5 -7 -11 -14 -14
-10 -4 -13 -1 -9 9 6 15 23 19 23 5z m160 -1 c0 -5 -2 -10 -4 -10 -3 0 -8 5
-11 10 -3 6 -1 10 4 10 6 0 11 -4 11 -10z m160 0 c0 -5 -2 -10 -4 -10 -3 0 -8
5 -11 10 -3 6 -1 10 4 10 6 0 11 -4 11 -10z m50 0 c0 -5 -2 -10 -4 -10 -3 0
-8 5 -11 10 -3 6 -1 10 4 10 6 0 11 -4 11 -10z m-615 -28 c-3 -3 -11 0 -18 7
-9 10 -8 11 6 5 10 -3 15 -9 12 -12z m80 0 c-3 -3 -11 0 -18 7 -9 10 -8 11 6
5 10 -3 15 -9 12 -12z m245 3 c0 -2 -9 -3 -19 -2 -11 0 -18 5 -15 9 4 6 34 0
34 -7z m370 -15 c0 -6 -9 -2 -20 7 -11 10 -20 19 -20 21 0 1 9 -2 20 -8 11 -6
20 -15 20 -20z m-835 -10 c10 -11 16 -20 13 -20 -3 0 -13 9 -23 20 -10 11 -16
20 -13 20 3 0 13 -9 23 -20z m83 0 c7 -11 11 -20 9 -20 -2 0 -12 9 -22 20 -10
11 -14 20 -9 20 5 0 15 -9 22 -20z m257 10 c3 -5 1 -10 -4 -10 -6 0 -11 5 -11
10 0 6 2 10 4 10 3 0 8 -4 11 -10z m461 -11 c19 -22 19 -22 -3 -8 -13 8 -23
17 -23 21 0 12 6 9 26 -13z m-841 1 c3 -5 1 -10 -4 -10 -6 0 -11 5 -11 10 0 6
2 10 4 10 3 0 8 -4 11 -10z m265 -20 c0 -5 -4 -10 -10 -10 -5 0 -10 5 -10 10
0 6 5 10 10 10 6 0 10 -4 10 -10z m40 0 c0 -5 -4 -10 -10 -10 -5 0 -10 5 -10
10 0 6 5 10 10 10 6 0 10 -4 10 -10z m-280 -10 c0 -5 -2 -10 -4 -10 -3 0 -8 5
-11 10 -3 6 -1 10 4 10 6 0 11 -4 11 -10z m90 -5 c7 -8 8 -15 2 -15 -5 0 -15
7 -22 15 -7 8 -8 15 -2 15 5 0 15 -7 22 -15z m224 -14 c-2 -2 5 -10 16 -18 11
-8 20 -19 20 -24 0 -18 -56 35 -57 53 -1 14 1 15 12 5 7 -6 11 -14 9 -16z
m326 19 c0 -5 -2 -10 -4 -10 -3 0 -8 5 -11 10 -3 6 -1 10 4 10 6 0 11 -4 11
-10z m-661 -31 c-10 -6 -9 -12 5 -28 11 -12 14 -21 7 -21 -6 0 -17 11 -23 25
-11 25 -38 35 -38 14 0 -5 -4 -7 -10 -4 -20 12 -9 23 20 21 17 -1 30 2 30 7 0
4 5 5 11 1 8 -4 7 -9 -2 -15z m71 -9 c0 -6 -9 -2 -20 7 -11 10 -20 19 -20 21
0 1 9 -2 20 -8 11 -6 20 -15 20 -20z m315 9 c11 -16 1 -19 -13 -3 -7 8 -8 14
-3 14 5 0 13 -5 16 -11z m-175 -29 c6 0 10 8 10 17 0 9 3 14 6 10 3 -3 3 -15
-1 -27 -6 -20 -8 -21 -26 -4 -10 9 -19 22 -19 28 0 6 5 3 11 -6 5 -10 14 -18
19 -18z m-160 -5 c13 -14 21 -25 18 -25 -2 0 -15 11 -28 25 -13 14 -21 25 -18
25 2 0 15 -11 28 -25z m-110 -21 c0 -3 -6 -1 -13 5 -8 6 -17 8 -21 4 -4 -4 -4
0 -1 10 6 14 9 14 21 2 8 -7 14 -17 14 -21z m240 7 c0 -5 -7 -11 -14 -14 -10
-4 -13 -1 -9 9 6 15 23 19 23 5z m-204 -22 c4 -8 9 -7 15 2 5 8 9 10 9 4 0
-25 -16 -32 -34 -14 -11 11 -14 19 -8 19 6 0 14 -5 18 -11z m69 1 c3 -5 1 -10
-4 -10 -6 0 -11 5 -11 10 0 6 2 10 4 10 3 0 8 -4 11 -10z m465 -25 c13 -14 21
-25 18 -25 -2 0 -15 11 -28 25 -13 14 -21 25 -18 25 2 0 15 -11 28 -25z m-545
-5 c10 -11 14 -20 8 -20 -5 0 -18 9 -28 20 -10 11 -14 20 -8 20 5 0 18 -9 28
-20z m-25 -30 c0 -5 -2 -10 -4 -10 -3 0 -8 5 -11 10 -3 6 -1 10 4 10 6 0 11
-4 11 -10z m-14 -39 c-12 -11 -18 -10 -38 9 -22 22 -22 22 -1 11 30 -16 38
-14 22 6 -13 15 -12 15 8 2 19 -12 21 -16 9 -28z m99 -1 c3 -5 1 -10 -4 -10
-6 0 -11 5 -11 10 0 6 2 10 4 10 3 0 8 -4 11 -10z m245 0 c0 -5 -2 -10 -4 -10
-3 0 -8 5 -11 10 -3 6 -1 10 4 10 6 0 11 -4 11 -10z m-310 -6 c0 -3 -7 -12
-15 -21 -20 -19 -32 -10 -14 11 14 15 29 21 29 10z m-72 -53 c17 -17 32 -33
32 -37 0 -4 -8 0 -17 9 -10 10 -29 26 -43 37 -14 11 -20 19 -15 20 6 0 25 -13
43 -29z m-78 5 c0 -2 -7 -7 -16 -10 -8 -3 -12 -2 -9 4 6 10 25 14 25 6z m175
-17 c11 -16 1 -19 -13 -3 -7 8 -8 14 -3 14 5 0 13 -5 16 -11z m480 0 c11 -16
1 -19 -13 -3 -7 8 -8 14 -3 14 5 0 13 -5 16 -11z m-587 -19 c7 -11 11 -20 9
-20 -2 0 -12 9 -22 20 -10 11 -14 20 -9 20 5 0 15 -9 22 -20z m72 10 c0 -5 -2
-10 -4 -10 -3 0 -8 5 -11 10 -3 6 -1 10 4 10 6 0 11 -4 11 -10z m444 -6 c3 -8
2 -12 -4 -9 -6 3 -10 10 -10 16 0 14 7 11 14 -7z m-89 -4 c-3 -5 -12 -10 -18
-10 -7 0 -6 4 3 10 19 12 23 12 15 0z m136 -7 c13 -16 12 -17 -3 -4 -10 7 -18
15 -18 17 0 8 8 3 21 -13z m-71 -1 c0 -4 -9 -13 -20 -20 -23 -14 -26 -8 -7 13
13 16 27 19 27 7z m-270 -12 c0 -5 -5 -10 -11 -10 -5 0 -7 5 -4 10 3 6 8 10
11 10 2 0 4 -4 4 -10z m-212 -29 c17 -17 32 -33 32 -36 0 -4 -10 2 -22 14 -13
12 -32 28 -43 36 -11 8 -15 15 -10 15 6 0 25 -13 43 -29z m52 19 c0 -5 -2 -10
-4 -10 -3 0 -8 5 -11 10 -3 6 -1 10 4 10 6 0 11 -4 11 -10z m480 0 c0 -5 -2
-10 -4 -10 -3 0 -8 5 -11 10 -3 6 -1 10 4 10 6 0 11 -4 11 -10z m-640 -20 c0
-5 -4 -10 -10 -10 -5 0 -10 5 -10 10 0 6 5 10 10 10 6 0 10 -4 10 -10z m103
-33 c10 -10 17 -20 15 -23 -3 -2 -20 13 -39 33 -33 36 -15 28 24 -10z m92 25
c-3 -3 -11 0 -18 7 -9 10 -8 11 6 5 10 -3 15 -9 12 -12z m573 -17 c-3 -3 -9 2
-12 12 -6 14 -5 15 5 6 7 -7 10 -15 7 -18z m-584 -11 c5 -14 4 -15 -9 -4 -17
14 -19 20 -6 20 5 0 12 -7 15 -16z m381 -4 c3 -5 1 -10 -4 -10 -6 0 -11 5 -11
10 0 6 2 10 4 10 3 0 8 -4 11 -10z m-405 -20 c0 -5 -2 -10 -4 -10 -3 0 -8 5
-11 10 -3 6 -1 10 4 10 6 0 11 -4 11 -10z m-140 -54 c10 -16 6 -15 -18 5 -17
13 -33 30 -36 37 -8 18 39 -19 54 -42z m598 43 c-11 -6 -15 -16 -11 -26 6 -15
5 -16 -9 -3 -16 14 -16 16 0 28 8 6 21 12 26 12 6 0 3 -5 -6 -11z m76 -4 c7
-19 -3 -19 -28 0 -19 15 -19 15 1 15 11 0 23 -7 27 -15z m-663 -5 c10 -6 19
-16 19 -23 0 -8 -3 -9 -8 -1 -4 6 -16 16 -27 22 -25 14 -11 16 16 2z m84 0 c3
-5 2 -10 -4 -10 -5 0 -13 5 -16 10 -3 6 -2 10 4 10 5 0 13 -4 16 -10z m442 3
c-4 -3 5 -17 19 -30 15 -13 24 -27 21 -30 -7 -6 -57 46 -57 58 0 5 5 9 12 9 6
0 8 -3 5 -7z m-352 -14 c11 -16 1 -19 -13 -3 -7 8 -8 14 -3 14 5 0 13 -5 16
-11z m-24 -26 c13 -16 12 -17 -3 -4 -10 7 -18 15 -18 17 0 8 8 3 21 -13z m319
13 c0 -3 -4 -8 -10 -11 -5 -3 -10 -1 -10 4 0 6 5 11 10 11 6 0 10 -2 10 -4z
m-585 -26 c3 -5 1 -10 -4 -10 -6 0 -11 5 -11 10 0 6 2 10 4 10 3 0 8 -4 11
-10z m113 -29 c17 -17 32 -33 32 -37 0 -4 -8 0 -17 9 -10 10 -29 26 -43 37
-14 11 -20 19 -15 20 6 0 25 -13 43 -29z m102 -21 c6 -11 9 -20 8 -20 -2 0
-11 9 -21 20 -9 11 -13 20 -7 20 5 0 14 -9 20 -20z m-115 -10 c10 -11 16 -20
13 -20 -3 0 -13 9 -23 20 -10 11 -16 20 -13 20 3 0 13 -9 23 -20z m580 10 c3
-5 1 -10 -4 -10 -6 0 -11 5 -11 10 0 6 2 10 4 10 3 0 8 -4 11 -10z m-464 -44
c16 -21 16 -22 -6 -21 -13 0 -27 4 -31 8 -5 4 -1 5 9 1 23 -9 21 5 -5 34 -20
22 -20 23 -3 12 11 -6 27 -22 36 -34z m609 36 c0 -4 -9 -13 -20 -20 -23 -14
-26 -8 -7 13 13 16 27 19 27 7z m-470 -12 c0 -5 -2 -10 -4 -10 -3 0 -8 5 -11
10 -3 6 -1 10 4 10 6 0 11 -4 11 -10z m301 -7 c13 -16 12 -17 -3 -4 -10 7 -18
15 -18 17 0 8 8 3 21 -13z m-571 -13 c0 -5 -2 -10 -4 -10 -3 0 -8 5 -11 10 -3
6 -1 10 4 10 6 0 11 -4 11 -10z m80 0 c0 -5 -2 -10 -4 -10 -3 0 -8 5 -11 10
-3 6 -1 10 4 10 6 0 11 -4 11 -10z m475 -12 c5 -4 0 -6 -12 -6 -13 1 -19 7
-16 15 3 8 8 10 12 6 3 -4 10 -11 16 -15z m505 12 c0 -5 -5 -10 -11 -10 -5 0
-7 5 -4 10 3 6 8 10 11 10 2 0 4 -4 4 -10z m-1000 -15 c7 -9 8 -15 2 -15 -5 0
-12 7 -16 15 -3 8 -4 15 -2 15 2 0 9 -7 16 -15z m234 6 c3 -5 -1 -11 -9 -14
-9 -4 -12 -1 -8 9 6 16 10 17 17 5z m80 -23 c-6 -19 -4 -21 7 -11 21 17 57
-10 40 -31 -15 -18 -49 -27 -57 -15 -3 5 -2 9 3 8 14 -3 43 13 43 23 0 6 -8 8
-19 5 -11 -3 -26 4 -36 16 -15 18 -15 19 -1 14 9 -4 16 -2 16 3 0 6 3 10 6 10
3 0 2 -10 -2 -22z m77 -12 c9 -19 9 -19 -4 -3 -8 9 -19 17 -26 17 -6 0 -11 4
-11 10 0 16 30 -1 41 -24z m254 24 c4 -6 -1 -7 -11 -3 -14 5 -15 3 -4 -18 13
-24 13 -24 -7 -4 -14 14 -17 22 -9 27 15 10 24 10 31 -2z m-500 -11 c11 -16 1
-19 -13 -3 -7 8 -8 14 -3 14 5 0 13 -5 16 -11z m285 -11 c0 -6 -6 -5 -15 2 -8
7 -15 14 -15 16 0 2 7 1 15 -2 8 -4 15 -11 15 -16z m120 0 c11 -22 10 -22 -4
-4 -25 31 -31 11 -7 -22 30 -43 26 -45 -14 -5 -19 19 -35 36 -35 38 0 3 24 11
42 14 4 0 12 -9 18 -21z m428 -4 c-7 -15 -14 -21 -16 -15 -2 7 2 18 8 26 18
22 21 18 8 -11z m-380 -4 c7 -11 11 -20 9 -20 -2 0 -12 9 -22 20 -10 11 -14
20 -9 20 5 0 15 -9 22 -20z m-631 -5 c8 -9 13 -19 10 -22 -6 -5 -37 21 -37 31
0 10 11 6 27 -9z m74 -2 c13 -16 12 -17 -3 -4 -10 7 -18 15 -18 17 0 8 8 3 21
-13z m114 -41 c-3 -3 -6 -3 -7 -1 -2 2 -14 18 -28 34 l-25 30 32 -29 c18 -16
31 -32 28 -34z m126 41 c13 -16 12 -17 -3 -4 -10 7 -18 15 -18 17 0 8 8 3 21
-13z m-421 -25 c0 -6 -7 -5 -15 2 -8 7 -15 17 -15 22 0 6 7 5 15 -2 8 -7 15
-17 15 -22z m605 12 c3 -5 2 -10 -4 -10 -5 0 -13 5 -16 10 -3 6 -2 10 4 10 5
0 13 -4 16 -10z m-445 -10 c0 -5 -2 -10 -4 -10 -3 0 -8 5 -11 10 -3 6 -1 10 4
10 6 0 11 -4 11 -10z m80 0 c0 -5 -2 -10 -4 -10 -3 0 -8 5 -11 10 -3 6 -1 10
4 10 6 0 11 -4 11 -10z m320 0 c0 -5 -2 -10 -4 -10 -3 0 -8 5 -11 10 -3 6 -1
10 4 10 6 0 11 -4 11 -10z m80 0 c0 -5 8 -10 18 -11 12 0 10 -3 -7 -10 -17 -6
-28 -6 -35 1 -8 8 -5 9 9 4 18 -7 18 -6 6 9 -9 11 -10 17 -2 17 6 0 11 -4 11
-10z m80 0 c0 -5 -2 -10 -4 -10 -3 0 -8 5 -11 10 -3 6 -1 10 4 10 6 0 11 -4
11 -10z m80 0 c0 -5 -2 -10 -4 -10 -3 0 -8 5 -11 10 -3 6 -1 10 4 10 6 0 11
-4 11 -10z m-566 -29 c-2 -3 -12 3 -22 13 -16 17 -16 18 5 5 12 -7 20 -15 17
-18z m301 20 c3 -5 2 -12 -3 -15 -5 -3 -9 1 -9 9 0 17 3 19 12 6z m565 -1 c0
-5 -2 -10 -4 -10 -3 0 -8 5 -11 10 -3 6 -1 10 4 10 6 0 11 -4 11 -10z m-1088
-30 c36 -33 25 -42 -12 -10 -13 11 -25 20 -28 20 -7 0 30 -54 47 -68 9 -8 11
-11 4 -8 -16 8 -43 -4 -43 -19 0 -7 6 -15 13 -18 6 -2 8 -8 4 -13 -5 -5 -13
-1 -18 8 -5 9 -17 25 -26 34 -16 16 -16 16 7 10 25 -6 25 -6 3 5 -13 7 -23 18
-23 26 0 19 13 16 28 -7 7 -11 17 -20 24 -20 6 0 1 11 -11 24 -16 17 -21 31
-16 45 3 12 8 21 10 21 2 0 19 -13 37 -30z m23 20 c3 -5 2 -10 -4 -10 -5 0
-13 5 -16 10 -3 6 -2 10 4 10 5 0 13 -4 16 -10z m357 -8 c-7 -2 -12 -11 -12
-20 0 -13 -2 -14 -12 -3 -11 11 -10 14 0 18 6 3 10 9 7 14 -4 5 2 6 11 2 11
-4 13 -8 6 -11z m43 0 c-3 -3 -11 0 -18 7 -9 10 -8 11 6 5 10 -3 15 -9 12 -12z
m-275 -22 c5 8 12 11 16 8 3 -4 -1 -15 -10 -24 -16 -15 -18 -15 -31 2 -8 11
-14 24 -14 29 0 6 6 1 15 -10 12 -17 16 -18 24 -5z m207 -30 c9 -10 12 -11 13
-2 0 6 5 12 11 12 8 0 8 -5 -1 -15 -10 -12 -9 -16 4 -21 9 -4 21 -15 27 -26 9
-17 8 -18 -8 -7 -10 7 -36 33 -58 58 -22 25 -31 39 -20 31 11 -8 25 -22 32
-30z m300 25 c8 -9 13 -19 10 -22 -6 -5 -37 21 -37 31 0 10 11 6 27 -9z m413
1 c0 -3 -4 -8 -10 -11 -5 -3 -10 -1 -10 4 0 6 5 11 10 11 6 0 10 -2 10 -4z
m-840 -16 c0 -5 -5 -10 -11 -10 -5 0 -7 5 -4 10 3 6 8 10 11 10 2 0 4 -4 4
-10z m191 -14 c-6 -7 -8 -16 -4 -20 4 -4 -1 -4 -12 0 -11 5 -14 9 -7 12 7 2
12 10 12 18 0 9 5 12 10 9 8 -5 8 -11 1 -19z m-111 4 c0 -5 -2 -10 -4 -10 -3
0 -8 5 -11 10 -3 6 -1 10 4 10 6 0 11 -4 11 -10z m735 -10 c3 -5 1 -10 -4 -10
-6 0 -11 5 -11 10 0 6 2 10 4 10 3 0 8 -4 11 -10z m-980 -18 c-3 -3 -11 0 -18
7 -9 10 -8 11 6 5 10 -3 15 -9 12 -12z m218 12 c-7 -3 -9 -13 -6 -22 6 -14 5
-15 -9 -2 -16 15 -7 31 17 29 6 0 5 -3 -2 -5z m103 -53 c28 -31 32 -41 16 -32
-12 6 -30 24 -39 39 -10 15 -25 33 -33 40 -13 12 -13 12 1 5 8 -4 33 -28 55
-52z m-54 19 c12 -11 19 -22 16 -25 -2 -3 -15 6 -28 20 -28 30 -18 34 12 5z
m-242 4 c0 -7 -27 -34 -34 -34 -4 0 -1 9 6 20 12 19 28 27 28 14z m40 -4 c0
-5 -2 -10 -4 -10 -3 0 -8 5 -11 10 -3 6 -1 10 4 10 6 0 11 -4 11 -10z m121 -7
c13 -16 12 -17 -3 -4 -10 7 -18 15 -18 17 0 8 8 3 21 -13z m320 0 c13 -16 12
-17 -3 -4 -10 7 -18 15 -18 17 0 8 8 3 21 -13z m443 -27 c-3 -8 -14 -18 -25
-21 -11 -4 -17 -10 -14 -15 6 -9 -26 -70 -37 -70 -18 0 -16 20 4 34 12 9 19
19 15 22 -4 4 -13 1 -22 -6 -8 -7 -15 -9 -15 -6 0 10 27 36 37 36 21 1 53 39
47 57 -5 16 -4 16 5 1 6 -9 8 -23 5 -32z m-103 7 c13 -16 12 -17 -3 -4 -10 7
-18 15 -18 17 0 8 8 3 21 -13z m-761 -1 c0 -5 11 -14 25 -20 14 -6 25 -16 25
-22 0 -8 -4 -8 -12 0 -7 5 -24 19 -38 30 -14 10 -19 19 -12 20 6 0 12 -4 12
-8z m96 -14 l19 -21 -27 18 c-29 18 -34 25 -20 25 5 0 17 -10 28 -22z m-210
-7 c-3 -5 4 -20 15 -35 11 -14 16 -26 10 -26 -7 0 -17 11 -23 25 -6 14 -16 25
-22 25 -6 0 -4 5 4 10 19 12 23 12 16 1z m82 -16 c0 -11 -2 -15 -6 -9 -4 6
-16 16 -27 21 -18 10 -17 11 6 10 17 -2 26 -8 27 -22z m217 15 c3 -5 1 -10 -4
-10 -6 0 -11 5 -11 10 0 6 2 10 4 10 3 0 8 -4 11 -10z m-84 -31 c11 -11 19
-23 17 -25 -3 -2 -15 7 -28 21 -28 30 -19 34 11 4z m239 1 c11 -11 17 -20 13
-20 -11 1 -43 26 -43 34 0 11 9 7 30 -14z m34 4 c3 -8 2 -12 -4 -9 -6 3 -10
10 -10 16 0 14 7 11 14 -7z m-391 -32 c2 7 8 9 13 5 5 -4 3 -12 -4 -16 -9 -6
-6 -13 13 -27 14 -10 25 -23 25 -28 0 -5 -11 1 -26 14 -16 16 -28 21 -32 14
-5 -7 -14 -4 -27 9 -20 20 -20 20 3 8 30 -16 28 -4 -5 33 l-28 31 31 -28 c23
-21 33 -25 37 -15z m57 8 c0 -17 -15 -11 -28 11 -12 19 -11 19 8 9 11 -6 20
-15 20 -20z m381 13 c13 -16 12 -17 -3 -4 -10 7 -18 15 -18 17 0 8 8 3 21 -13z
m-341 -23 c0 -5 -2 -10 -4 -10 -3 0 -8 5 -11 10 -3 6 -1 10 4 10 6 0 11 -4 11
-10z m240 0 c0 -5 -2 -10 -4 -10 -3 0 -8 5 -11 10 -3 6 -1 10 4 10 6 0 11 -4
11 -10z m315 -19 c-6 -5 -25 10 -25 20 0 5 6 4 14 -3 8 -7 12 -15 11 -17z
m-285 -44 c0 -6 -10 -1 -23 11 -28 27 -42 28 -32 5 5 -16 4 -16 -7 -3 -7 8
-20 20 -28 28 -13 11 -11 11 9 1 21 -10 23 -9 18 5 -5 12 4 9 28 -10 19 -14
35 -31 35 -37z m-538 19 c9 -18 8 -19 -3 -6 -8 8 -21 20 -29 27 -13 11 -13 12
3 7 10 -4 22 -16 29 -28z m218 24 c0 -5 -2 -10 -4 -10 -3 0 -8 5 -11 10 -3 6
-1 10 4 10 6 0 11 -4 11 -10z m150 -5 c6 3 7 -1 4 -9 -8 -20 -12 -20 -31 -1
-8 8 -19 12 -25 9 -7 -4 -8 -2 -4 4 5 9 13 9 27 2 11 -6 24 -8 29 -5z m195
-15 c11 -17 -5 -11 -28 11 l-22 21 22 -11 c12 -6 25 -16 28 -21z m385 1 c5 7
13 10 17 5 4 -4 -1 -14 -11 -22 -17 -12 -22 -12 -36 1 -9 8 -20 12 -23 8 -4
-3 -7 1 -7 11 0 15 2 15 26 0 22 -15 27 -15 34 -3z m-497 -11 c9 -11 13 -20 9
-20 -10 1 -42 26 -42 34 0 12 16 6 33 -14z m-473 -12 c0 -6 -6 -5 -15 2 -8 7
-15 14 -15 16 0 2 7 1 15 -2 8 -4 15 -11 15 -16z m430 12 c0 -5 -4 -10 -10
-10 -5 0 -10 5 -10 10 0 6 5 10 10 10 6 0 10 -4 10 -10z m-540 -20 c0 -5 -4
-10 -10 -10 -5 0 -10 5 -10 10 0 6 5 10 10 10 6 0 10 -4 10 -10z m160 -10 c0
-5 -6 -10 -12 -10 -7 0 2 -13 20 -29 39 -36 43 -51 5 -21 -28 22 -65 69 -45
56 7 -4 12 -2 12 3 0 6 5 11 10 11 6 0 10 -4 10 -10z m80 0 c0 -5 -2 -10 -4
-10 -3 0 -8 5 -11 10 -3 6 -1 10 4 10 6 0 11 -4 11 -10z m80 0 c0 -5 -2 -10
-4 -10 -3 0 -8 5 -11 10 -3 6 -1 10 4 10 6 0 11 -4 11 -10z m253 -11 l22 -21
-22 11 c-12 6 -25 16 -28 21 -11 17 5 11 28 -11z m67 12 c0 -5 8 -12 18 -14
14 -4 14 -5 1 -6 -9 0 -22 6 -29 14 -9 10 -9 15 -1 15 6 0 11 -4 11 -9z m410
-6 c7 -9 8 -15 2 -15 -5 0 -12 7 -16 15 -3 8 -4 15 -2 15 2 0 9 -7 16 -15z
m-840 -35 c0 -6 -9 -2 -20 7 -11 10 -20 19 -20 21 0 1 9 -2 20 -8 11 -6 20
-15 20 -20z m167 -11 c3 -10 9 -19 14 -19 5 0 9 -6 9 -12 -1 -7 -9 -2 -20 12
-11 14 -28 33 -37 44 -17 18 -17 18 6 6 13 -6 26 -21 28 -31z m153 31 c-8 -5
-19 -10 -25 -10 -5 0 -3 5 5 10 8 5 20 10 25 10 6 0 3 -5 -5 -10z m-86 -55 c8
-22 -17 -7 -38 21 l-19 26 26 -17 c14 -9 28 -22 31 -30z m151 7 c-6 -7 -35 18
-35 31 0 5 9 2 20 -8 11 -10 18 -20 15 -23z m-435 -12 c0 -5 -2 -10 -4 -10 -3
0 -8 5 -11 10 -3 6 -1 10 4 10 6 0 11 -4 11 -10z m80 0 c0 -5 -2 -10 -4 -10
-3 0 -8 5 -11 10 -3 6 -1 10 4 10 6 0 11 -4 11 -10z m80 0 c0 -5 -2 -10 -4
-10 -3 0 -8 5 -11 10 -3 6 -1 10 4 10 6 0 11 -4 11 -10z m200 0 c0 -5 -4 -10
-10 -10 -5 0 -10 5 -10 10 0 6 5 10 10 10 6 0 10 -4 10 -10z m-468 -44 c9 -18
8 -19 -3 -6 -8 8 -21 20 -29 27 -13 11 -13 12 3 7 10 -4 22 -16 29 -28z m160
0 c9 -18 8 -19 -3 -6 -8 8 -21 20 -29 27 -13 11 -13 12 3 7 10 -4 22 -16 29
-28z m80 0 c9 -18 8 -19 -3 -6 -8 8 -21 20 -29 27 -13 11 -13 12 3 7 10 -4 22
-16 29 -28z m83 3 c14 -21 -1 -17 -25 8 -23 24 -23 25 -3 15 12 -7 25 -17 28
-23z m60 13 c-3 -3 -11 0 -18 7 -9 10 -8 11 6 5 10 -3 15 -9 12 -12z m181 -12
c0 -12 -4 -16 -9 -11 -5 5 -6 14 -3 20 10 15 12 14 12 -9z m-358 -10 c7 -11
11 -20 9 -20 -2 0 -12 9 -22 20 -10 11 -14 20 -9 20 5 0 15 -9 22 -20z m80 0
c7 -11 11 -20 9 -20 -2 0 -12 9 -22 20 -10 11 -14 20 -9 20 5 0 15 -9 22 -20z
m-338 -30 c0 -5 -2 -10 -4 -10 -3 0 -8 5 -11 10 -3 6 -1 10 4 10 6 0 11 -4 11
-10z m160 0 c0 -5 -2 -10 -4 -10 -3 0 -8 5 -11 10 -3 6 -1 10 4 10 6 0 11 -4
11 -10z m80 0 c0 -5 -2 -10 -4 -10 -3 0 -8 5 -11 10 -3 6 -1 10 4 10 6 0 11
-4 11 -10z m80 0 c0 -5 -2 -10 -4 -10 -3 0 -8 5 -11 10 -3 6 -1 10 4 10 6 0
11 -4 11 -10z m21 -52 c10 -9 22 -25 27 -35 9 -16 7 -19 -12 -21 -13 -1 -31 7
-41 18 -22 24 -13 26 20 4 36 -24 31 -6 -12 40 -35 37 -21 33 18 -6z m29 12
c0 -6 -9 -2 -20 7 -11 10 -20 19 -20 21 0 1 9 -2 20 -8 11 -6 20 -15 20 -20z
m-330 -6 c0 -21 -17 -17 -23 5 -3 14 -1 18 9 14 8 -3 14 -11 14 -19z m254 0
c3 -8 2 -12 -4 -9 -6 3 -10 10 -10 16 0 14 7 11 14 -7z m-18 -26 l29 -33 -32
29 c-18 17 -33 31 -33 33 0 8 8 1 36 -29z m212 12 c7 -11 11 -20 9 -20 -2 0
-12 9 -22 20 -10 11 -14 20 -9 20 5 0 15 -9 22 -20z m93 3 c13 -16 12 -17 -3
-4 -10 7 -18 15 -18 17 0 8 8 3 21 -13z m-501 -23 c0 -5 -2 -10 -4 -10 -3 0
-8 5 -11 10 -3 6 -1 10 4 10 6 0 11 -4 11 -10z m395 -19 c-6 -5 -25 10 -25 20
0 5 6 4 14 -3 8 -7 12 -15 11 -17z m-102 -110 c7 -14 7 -14 -5 0 -18 22 -56
41 -68 34 -6 -3 -7 1 -4 10 4 8 0 23 -7 33 -8 9 6 -1 31 -22 25 -22 49 -47 53
-55z m5 64 c-3 -3 -9 2 -12 12 -6 14 -5 15 5 6 7 -7 10 -15 7 -18z m42 15 c8
-5 11 -12 8 -16 -4 -3 -14 1 -23 10 -18 17 -9 21 15 6z m-25 -60 c10 -11 16
-20 13 -20 -3 0 -13 9 -23 20 -10 11 -16 20 -13 20 3 0 13 -9 23 -20z m35 10
c0 -5 -2 -10 -4 -10 -3 0 -8 5 -11 10 -3 6 -1 10 4 10 6 0 11 -4 11 -10z
m-336 -42 c25 -27 31 -30 48 -19 23 14 40 5 18 -10 -11 -8 -10 -9 8 -4 14 4
22 2 22 -5 0 -8 -11 -10 -35 -6 -30 6 -34 5 -28 -11 6 -15 5 -16 -9 -3 -9 8
-14 18 -11 23 2 4 1 7 -4 7 -4 0 -26 17 -48 37 -34 31 -36 35 -15 29 14 -4 38
-21 54 -38z m226 -20 c0 -14 -19 1 -31 25 -12 22 -12 22 10 3 11 -11 21 -23
21 -28z m36 14 c-4 -3 -14 2 -24 12 -16 18 -16 18 6 6 13 -6 21 -14 18 -18z
m-61 -21 c13 -16 15 -21 5 -16 -29 16 -40 27 -34 37 3 5 7 8 8 6 0 -2 10 -14
21 -27z m120 -1 c10 -11 15 -20 11 -20 -4 0 -16 9 -28 20 -12 11 -17 20 -11
20 5 0 18 -9 28 -20z m100 -10 c3 -5 1 -10 -4 -10 -6 0 -11 5 -11 10 0 6 2 10
4 10 3 0 8 -4 11 -10z m-221 -26 c3 -8 2 -12 -4 -9 -6 3 -10 10 -10 16 0 14 7
11 14 -7z m46 -9 c14 -19 14 -19 -2 -6 -10 7 -18 18 -18 24 0 6 1 8 3 6 1 -2
9 -13 17 -24z m120 4 c0 -6 -4 -7 -10 -4 -5 3 -10 11 -10 16 0 6 5 7 10 4 6
-3 10 -11 10 -16z m-24 -14 c17 -16 14 -18 -10 -9 -9 3 -16 10 -16 15 0 13 9
11 26 -6z m-36 -15 c0 -5 -6 -12 -12 -16 -7 -4 -10 -4 -6 1 4 4 3 14 -4 22 -8
11 -7 12 6 7 9 -3 16 -10 16 -14z m-160 0 c0 -5 -2 -10 -4 -10 -3 0 -8 5 -11
10 -3 6 -1 10 4 10 6 0 11 -4 11 -10z m80 2 c0 -4 -9 -13 -20 -20 -19 -12 -20
-11 -8 8 13 20 28 27 28 12z m50 -36 c0 -2 -9 -2 -20 1 -11 3 -20 9 -20 15 0
5 9 4 20 -2 11 -6 20 -12 20 -14z m-126 8 c9 -3 16 -12 16 -20 0 -17 17 -18
23 -1 4 9 6 9 6 0 1 -6 -3 -14 -8 -17 -14 -9 -41 4 -41 19 0 8 -8 16 -17 18
-10 3 -13 5 -6 6 6 0 18 -2 27 -5z m81 -14 c3 -5 -1 -10 -9 -10 -9 0 -16 5
-16 10 0 6 4 10 9 10 6 0 13 -4 16 -10z m-285 -30 c0 -5 -4 -10 -10 -10 -5 0
-10 5 -10 10 0 6 5 10 10 10 6 0 10 -4 10 -10z m-15 -30 c3 -5 2 -10 -4 -10
-5 0 -13 5 -16 10 -3 6 -2 10 4 10 5 0 13 -4 16 -10z"/>
<path d="M6900 6640 c20 -13 33 -13 25 0 -3 6 -14 10 -23 10 -15 0 -15 -2 -2
-10z"/>
<path d="M8374 10333 c-32 -38 -111 -122 -175 -189 -102 -105 -116 -123 -112
-147 3 -15 1 -27 -4 -27 -5 0 -8 -27 -7 -60 0 -33 -3 -60 -8 -60 -5 0 0 -12 9
-27 10 -15 12 -24 6 -20 -8 5 -13 3 -13 -7 0 -8 5 -18 11 -22 8 -4 7 -9 -2
-14 -10 -7 -10 -12 2 -26 11 -14 11 -16 0 -10 -10 7 -12 3 -6 -13 4 -12 2 -21
-4 -21 -6 0 -11 -5 -11 -11 0 -5 5 -7 12 -3 7 4 8 3 4 -4 -4 -6 -2 -22 5 -34
9 -19 9 -21 -2 -10 -23 21 -30 13 -14 -18 16 -32 20 -54 5 -30 -5 8 -12 11
-16 8 -3 -4 3 -20 14 -35 19 -27 19 -30 4 -40 -14 -9 -15 -14 -4 -32 15 -25
15 -34 2 -26 -5 3 -10 2 -10 -4 0 -5 5 -13 11 -17 6 -3 9 -15 6 -25 -3 -11 0
-19 5 -19 7 0 7 -4 1 -12 -11 -14 -10 -69 2 -87 3 -6 1 -11 -4 -11 -6 0 -11 5
-11 12 0 6 -3 8 -6 5 -4 -4 -2 -12 3 -19 13 -16 12 -189 -1 -181 -5 4 -6 1 -1
-7 5 -7 9 -151 10 -319 0 -169 5 -312 9 -319 4 -7 2 -12 -4 -12 -8 0 -7 -6 1
-21 8 -15 8 -19 0 -15 -14 9 -14 0 -1 -25 6 -10 7 -19 3 -19 -8 0 -7 -125 2
-147 2 -7 1 -13 -3 -13 -9 0 -7 -54 3 -69 3 -6 1 -11 -5 -11 -8 0 -7 -6 1 -21
6 -12 7 -19 1 -15 -11 6 -8 -56 3 -74 3 -5 1 -10 -5 -10 -6 0 -8 -5 -5 -11 11
-16 12 -69 2 -69 -4 0 -5 -5 -1 -12 10 -16 11 -308 1 -308 -4 0 -3 -9 3 -20 8
-14 8 -20 0 -20 -7 0 -8 -6 0 -19 7 -13 7 -22 0 -26 -5 -3 -10 -11 -10 -16 0
-6 4 -8 10 -4 5 3 8 -7 7 -25 -1 -16 -5 -30 -8 -30 -9 0 -5 -44 5 -52 6 -4 5
-12 -2 -21 -7 -7 -8 -17 -4 -21 10 -11 11 -295 1 -302 -5 -3 -6 -11 -2 -17 10
-16 10 -227 0 -227 -5 0 -5 -5 -1 -11 11 -19 11 -153 -1 -168 -7 -11 -7 -13 1
-9 7 5 10 -74 8 -260 -1 -147 -3 -269 -4 -272 -1 -3 -1 -9 0 -15 5 -20 2 -217
-4 -222 -3 -3 -1 -14 5 -24 7 -13 6 -19 -1 -19 -7 0 -8 -6 -2 -17 5 -10 8 -40
6 -68 -2 -27 -3 -75 -3 -105 -1 -99 -2 -124 -6 -128 -2 -3 0 -13 6 -23 7 -13
6 -19 -1 -19 -6 0 -8 -5 -4 -12 4 -7 9 -387 11 -846 2 -514 7 -840 13 -850 8
-14 9 -14 10 -2 0 9 3 11 8 5 4 -5 17 -16 29 -22 19 -11 21 -11 16 3 -5 15 -4
15 19 0 19 -12 27 -14 30 -5 3 8 9 7 20 -5 12 -11 18 -13 21 -3 3 9 7 9 18 1
15 -12 54 -13 65 -1 4 3 14 2 24 -3 10 -5 20 -7 23 -3 4 3 13 0 22 -7 9 -7 18
-10 22 -6 3 3 1 6 -6 6 -7 0 -9 4 -6 10 4 6 16 4 31 -6 18 -13 24 -13 24 -3 0
10 3 10 12 1 7 -7 17 -12 23 -12 5 0 3 4 -5 10 -8 5 -11 12 -8 15 4 4 13 3 20
-1 17 -11 51 -11 59 0 4 4 16 3 28 -3 16 -9 21 -9 21 0 0 9 3 9 14 0 10 -9 16
-9 21 -1 4 7 11 8 18 2 10 -8 54 -9 65 -2 7 5 73 2 79 -3 3 -4 11 -3 18 3 7 6
21 4 40 -6 15 -8 30 -12 33 -9 3 3 0 5 -6 5 -7 0 -12 3 -12 8 0 7 67 7 130 -1
14 -1 28 1 31 6 4 6 12 6 20 1 8 -5 23 -9 34 -9 11 0 23 4 26 9 4 5 13 5 20 0
19 -12 52 -11 61 1 5 6 12 5 20 -3 14 -14 42 -16 33 -2 -3 5 -2 10 3 10 6 0
12 -7 16 -15 3 -8 10 -15 15 -15 6 0 7 8 4 18 -6 14 -4 15 9 4 8 -7 22 -10 31
-6 8 3 18 1 22 -5 3 -6 12 -11 18 -11 7 0 6 4 -3 10 -8 5 -11 12 -7 16 3 4 13
2 20 -5 15 -11 51 -10 63 2 4 4 13 2 19 -3 13 -11 50 -9 61 3 4 4 13 2 19 -3
13 -11 50 -9 61 3 4 4 13 2 19 -3 13 -11 50 -9 61 3 4 4 13 2 20 -4 8 -6 20
-9 29 -6 8 4 17 2 20 -3 4 -6 12 -10 18 -10 7 0 6 4 -3 10 -8 5 -11 12 -7 16
3 4 12 2 19 -3 14 -11 53 -11 64 0 4 4 13 2 20 -4 8 -6 20 -9 29 -6 8 4 17 2
20 -3 4 -6 12 -10 18 -10 8 0 8 3 -2 9 -8 5 -9 11 -3 15 6 3 13 2 16 -3 7 -10
45 -9 63 2 5 3 13 3 18 -1 10 -10 49 -9 57 2 4 6 12 5 21 -2 14 -12 51 -12 63
1 3 3 18 -2 32 -11 19 -12 24 -13 17 -3 -6 11 -4 13 8 8 9 -3 18 -1 20 6 3 9
7 9 18 1 15 -12 54 -13 65 -1 4 3 20 -3 37 -15 29 -21 30 -21 23 -2 -6 15 -5
17 5 7 15 -15 33 -17 24 -3 -7 12 23 2 44 -14 12 -9 13 -8 7 3 -7 10 -3 12 14
6 15 -5 20 -4 16 4 -5 8 0 8 18 1 19 -7 26 -6 26 2 0 9 3 9 12 0 7 -7 17 -12
23 -12 5 0 3 4 -5 10 -8 5 -11 12 -7 16 3 4 13 1 21 -5 16 -13 47 -11 58 3 4
6 13 4 23 -4 13 -11 18 -11 25 -1 6 10 9 10 15 1 6 -9 9 -9 15 1 7 10 12 10
23 1 11 -9 22 -10 42 -2 15 6 37 8 48 4 14 -4 17 -3 12 6 -6 10 -4 11 6 4 18
-11 149 -13 149 -1 0 4 6 5 13 0 16 -11 140 -10 148 1 4 5 13 5 20 0 15 -9 59
-12 59 -4 0 3 -6 12 -12 19 -11 11 -10 12 2 6 8 -4 24 -15 35 -24 13 -10 16
-11 8 -1 -7 8 -13 17 -13 20 0 9 93 6 107 -3 9 -6 11 -3 7 7 -7 19 7 21 24 4
8 -8 15 -9 20 -3 11 15 42 18 57 5 9 -8 15 -8 20 0 3 5 1 10 -6 10 -7 0 -9 3
-6 6 4 4 14 1 24 -7 15 -13 16 -12 9 6 -6 16 -5 18 5 7 15 -14 43 -16 34 -2
-3 6 1 7 10 4 8 -4 21 -2 28 4 6 5 27 10 45 11 66 3 77 5 83 13 3 5 17 10 30
11 13 0 27 5 30 10 4 5 15 4 28 -2 17 -10 20 -9 15 4 -4 11 -2 13 9 9 8 -3 21
1 28 9 7 7 24 11 37 9 17 -3 23 -1 18 6 -5 8 -2 10 8 6 9 -3 16 -1 16 5 0 6 9
11 21 11 13 0 18 4 13 11 -5 8 1 10 19 7 18 -4 24 -1 20 9 -6 16 9 17 24 2 8
-8 15 -6 24 9 7 12 19 18 27 14 11 -4 13 -1 7 7 -5 10 -2 11 14 6 13 -4 21 -2
21 5 0 7 7 9 16 6 8 -3 12 -2 9 4 -3 6 1 10 9 10 9 0 16 5 16 10 0 6 6 10 13
9 6 -1 32 7 57 19 25 12 51 22 58 22 6 0 12 5 12 10 0 6 7 10 16 10 9 0 12 5
8 12 -4 7 -3 8 4 4 15 -9 55 18 44 29 -4 5 -2 5 5 1 7 -3 21 1 33 11 11 10 24
18 28 17 4 0 18 10 32 23 14 13 30 23 37 23 7 0 13 5 13 11 0 5 14 15 30 20
17 6 30 15 30 20 0 5 7 9 15 9 9 0 12 6 8 17 -5 13 -2 15 11 10 14 -6 17 -3
12 9 -4 12 -2 15 9 10 10 -4 15 1 15 15 0 13 4 18 12 13 8 -5 9 -2 5 10 -5 13
-3 17 7 13 9 -4 13 -1 10 6 -2 7 31 36 73 64 176 119 439 402 564 609 93 153
203 411 248 584 42 159 54 271 48 453 -9 293 -75 513 -220 727 -73 108 -137
179 -240 268 -154 130 -242 187 -436 283 l-134 66 111 112 c251 252 422 534
505 831 48 169 52 204 51 440 -1 221 -1 227 -33 344 -60 221 -176 440 -323
611 -214 247 -556 452 -921 550 -113 31 -403 90 -512 104 -188 26 -487 31
-1742 31 l-1321 0 -58 -67z m805 13 c9 -6 12 -7 9 -1 -7 12 105 11 124 -1 18
-11 -23 -23 -44 -13 -24 13 -48 12 -28 -1 9 -6 10 -10 3 -10 -6 0 -15 5 -18
10 -3 6 -11 10 -16 10 -6 0 -8 -4 -5 -8 2 -4 -32 -8 -77 -9 -45 -1 -93 -2
-107 -3 -61 -1 -76 -2 -90 -1 -34 2 -167 0 -200 -3 -19 -2 -43 1 -52 6 -10 5
-18 5 -18 0 0 -4 -34 -8 -75 -8 -41 -1 -75 3 -75 8 0 5 -4 6 -10 3 -5 -3 -10
-35 -10 -71 0 -41 -4 -63 -10 -59 -6 3 -8 27 -6 52 2 25 0 60 -4 79 l-8 35
351 -2 c234 -2 357 -6 366 -13z m177 -7 c19 -22 19 -22 -3 -10 -13 6 -23 16
-23 21 0 15 5 12 26 -11z m34 1 c0 -5 -2 -10 -4 -10 -3 0 -8 5 -11 10 -3 6 -1
10 4 10 6 0 11 -4 11 -10z m168 -3 c8 -10 5 -12 -14 -12 -13 1 -27 5 -31 10
-5 4 -3 5 4 1 6 -3 14 -2 18 4 8 13 10 13 23 -3z m152 3 c0 -5 -2 -10 -4 -10
-3 0 -8 5 -11 10 -3 6 -1 10 4 10 6 0 11 -4 11 -10z m44 1 c3 -5 15 -7 26 -4
11 3 20 3 20 0 0 -12 -38 -13 -55 -1 -10 8 -14 14 -8 14 7 0 14 -4 17 -9z
m196 -1 c0 -5 -2 -10 -4 -10 -3 0 -8 5 -11 10 -3 6 -1 10 4 10 6 0 11 -4 11
-10z m860 0 c0 -5 -8 -10 -17 -10 -15 0 -16 2 -3 10 19 12 20 12 20 0z m45 0
c3 -5 1 -10 -4 -10 -6 0 -11 5 -11 10 0 6 2 10 4 10 3 0 8 -4 11 -10z m106 -2
c16 -1 26 -4 20 -7 -15 -10 -91 0 -91 11 0 5 9 6 20 3 11 -3 34 -7 51 -7z
m-1491 -3 c0 -7 -30 -13 -34 -7 -3 4 4 9 15 9 10 1 19 0 19 -2z m174 -4 c5 -7
-52 -6 -60 2 -2 2 9 4 26 5 16 0 32 -3 34 -7z m41 -1 c3 -6 -1 -7 -9 -4 -18 7
-21 14 -7 14 6 0 13 -4 16 -10z m178 3 c-7 -2 -19 -2 -25 0 -7 3 -2 5 12 5 14
0 19 -2 13 -5z m61 -2 c3 -4 -6 -6 -19 -3 -14 2 -25 6 -25 8 0 8 39 4 44 -5z
m783 3 c-3 -3 -12 -4 -19 -1 -8 3 -5 6 6 6 11 1 17 -2 13 -5z m50 0 c-3 -3
-12 -4 -19 -1 -8 3 -5 6 6 6 11 1 17 -2 13 -5z m-2268 -201 c-1 -27 0 -97 0
-158 1 -60 1 -128 0 -150 -1 -38 -2 -37 -10 15 -4 30 -6 116 -4 190 5 164 4
150 11 150 3 0 4 -21 3 -47z m3796 -51 c-3 -3 -11 0 -18 7 -9 10 -8 11 6 5 10
-3 15 -9 12 -12z m-3798 -354 c-2 -13 -4 -5 -4 17 -1 22 1 32 4 23 2 -10 2
-28 0 -40z m0 -80 c-2 -13 -4 -5 -4 17 -1 22 1 32 4 23 2 -10 2 -28 0 -40z m3
-43 c0 -8 -2 -15 -4 -15 -2 0 -6 7 -10 15 -3 8 -1 15 4 15 6 0 10 -7 10 -15z
m0 -40 c0 -8 -2 -15 -4 -15 -2 0 -6 7 -10 15 -3 8 -1 15 4 15 6 0 10 -7 10
-15z m0 -50 c0 -14 -4 -25 -9 -25 -5 0 -8 11 -8 25 0 14 3 25 8 25 5 0 9 -11
9 -25z m4536 -52 c-4 -4 -11 -1 -16 7 -16 25 -11 35 7 17 9 -9 13 -20 9 -24z
m-4540 -10 c-10 -10 -19 5 -10 18 6 11 8 11 12 0 2 -7 1 -15 -2 -18z m4 -35
c0 -16 -3 -19 -11 -11 -6 6 -8 16 -5 22 11 17 16 13 16 -11z m4571 -20 c8 -15
8 -18 0 -14 -6 4 -16 16 -22 28 -8 15 -8 18 0 14 6 -4 16 -16 22 -28z m-3274
-910 c-1 -399 -5 -730 -9 -734 -5 -4 -11 -4 -15 0 -11 11 -10 1465 1 1501 l9
30 8 -35 c5 -19 8 -362 6 -762z m128 296 c2 -22 4 -43 5 -49 0 -5 4 -4 9 4 8
12 12 12 24 2 17 -13 48 -12 59 3 4 6 13 5 21 -3 17 -13 48 -12 59 3 4 6 14 4
24 -5 13 -11 18 -11 21 -1 3 6 12 12 20 12 9 0 13 -6 10 -14 -4 -10 0 -12 14
-9 22 6 24 14 7 33 -7 8 -2 5 12 -7 14 -11 36 -24 50 -28 18 -5 21 -4 10 4 -8
5 -11 13 -7 17 3 4 13 1 22 -6 8 -7 21 -10 30 -7 8 4 17 2 20 -3 4 -6 11 -10
17 -10 7 0 6 6 -2 15 -17 21 -1 19 23 -2 14 -13 21 -15 24 -6 3 9 11 8 29 -3
15 -11 24 -12 24 -5 0 8 5 9 19 1 26 -13 34 -13 24 3 -4 6 4 4 19 -5 14 -9 34
-17 44 -17 36 -1 89 -8 105 -15 9 -4 20 -6 25 -5 5 2 29 -3 53 -10 24 -7 56
-13 72 -13 16 -1 26 -5 22 -11 -3 -6 -2 -7 4 -4 9 6 42 -2 98 -24 104 -39 137
-56 166 -83 18 -17 36 -31 39 -31 10 0 47 -30 50 -40 1 -5 6 -9 12 -7 5 1 12
-7 15 -18 3 -11 10 -20 16 -20 6 0 8 -3 4 -6 -3 -3 -1 -11 4 -18 47 -55 59
-72 59 -81 0 -5 6 -21 13 -35 11 -23 27 -70 46 -140 4 -14 6 -55 5 -92 -2 -70
7 -83 44 -72 15 5 15 4 -2 -10 -27 -22 -170 -72 -262 -91 -96 -20 -459 -34
-921 -35 l-322 0 -6 33 c-3 17 -3 52 -1 77 3 25 6 205 7 400 2 350 7 486 15
477 3 -2 7 -22 9 -43z m1530 -794 c-3 -5 -12 -10 -18 -10 -7 0 -6 4 3 10 19
12 23 12 15 0z m-1668 -1352 c1 -46 1 -166 2 -268 4 -463 -1 -1033 -9 -1015
-14 33 -17 1333 -3 1358 9 15 10 5 10 -75z m294 -383 c12 4 19 3 16 -1 -3 -5
5 -9 18 -9 15 0 21 5 17 14 -4 11 -1 11 18 1 18 -10 24 -9 31 1 6 10 11 10 24
-1 13 -11 18 -11 24 -1 6 9 11 8 21 -4 7 -8 18 -15 24 -15 6 0 4 4 -4 10 -8 5
-11 12 -7 16 3 4 13 1 22 -6 8 -7 21 -10 30 -7 8 4 17 2 21 -4 3 -6 13 -8 21
-5 8 3 23 1 33 -4 16 -9 18 -8 13 6 -4 11 -3 15 5 10 6 -3 13 -2 17 4 4 6 13
5 25 -2 10 -7 16 -16 14 -20 -3 -4 0 -8 5 -8 6 0 11 5 11 12 0 6 3 9 6 5 3 -3
17 -2 31 4 17 6 34 5 58 -6 23 -9 35 -10 35 -3 0 6 12 2 27 -7 25 -17 26 -17
19 1 -6 15 -5 17 5 7 16 -16 43 -17 33 -1 -9 14 12 3 46 -26 14 -11 19 -14 13
-6 -22 24 -14 33 13 15 15 -9 29 -13 33 -9 10 15 41 16 57 3 8 -6 17 -9 21 -6
3 4 14 2 24 -3 12 -7 19 -6 22 3 3 8 13 4 32 -13 l28 -25 -13 25 c-12 24 -12
24 6 9 37 -31 47 -34 34 -9 l-12 23 33 -23 c18 -13 29 -17 24 -9 -7 10 -2 9
18 -3 33 -23 41 -23 33 -1 -5 13 -1 11 18 -6 14 -13 32 -21 40 -18 9 4 29 -5
46 -19 19 -17 28 -20 24 -10 -9 24 9 19 36 -9 12 -13 27 -22 32 -19 4 3 22 -4
38 -16 33 -24 39 -17 13 14 -10 11 2 4 26 -17 25 -20 48 -37 52 -37 4 0 11 -9
14 -21 4 -11 9 -18 11 -16 8 7 -18 57 -29 57 -6 0 -8 3 -4 6 3 3 38 -28 79
-70 40 -42 77 -76 82 -76 5 0 2 8 -7 18 -10 10 -17 24 -17 30 0 6 20 -10 44
-36 25 -26 42 -49 40 -52 -3 -2 -9 2 -14 10 -5 8 -12 11 -17 7 -4 -5 14 -28
40 -52 26 -25 47 -48 47 -52 0 -5 -6 -1 -13 8 -7 9 -23 22 -37 29 l-25 13 26
-29 c14 -16 32 -38 40 -48 12 -18 12 -19 -1 -11 -8 4 -26 17 -40 29 -13 12 -3
-3 23 -33 44 -50 56 -71 41 -71 -4 0 -13 8 -20 18 -7 9 -14 13 -14 9 0 -4 12
-20 28 -34 15 -14 22 -28 16 -30 -11 -4 -11 -54 0 -72 4 -7 1 -8 -8 -5 -18 7
-22 -11 -6 -21 6 -4 9 -14 8 -23 -2 -12 3 -16 20 -14 46 4 -15 -36 -101 -68
-158 -58 -345 -69 -1211 -69 l-528 0 7 422 c3 232 9 430 11 440 3 9 9 15 14
12 5 -3 7 -13 4 -23 -5 -13 -4 -14 4 -3 5 7 15 10 21 7 6 -4 11 -2 11 5 0 8
11 10 34 6 30 -5 34 -3 29 11 -6 15 -4 15 10 4 9 -8 25 -11 38 -7z m279 5 c0
-5 -5 -10 -11 -10 -5 0 -7 5 -4 10 3 6 8 10 11 10 2 0 4 -4 4 -10z m800 -80
c0 -5 -4 -10 -10 -10 -5 0 -10 5 -10 10 0 6 5 10 10 10 6 0 10 -4 10 -10z
m138 -65 c-3 -3 -9 2 -12 12 -6 14 -5 15 5 6 7 -7 10 -15 7 -18z m218 -87 l29
-33 -32 29 c-31 28 -38 36 -30 36 2 0 16 -15 33 -32z"/>
<path d="M10510 6240 c-13 -8 -12 -10 3 -10 9 0 17 5 17 10 0 12 -1 12 -20 0z"/>
<path d="M10690 6219 c0 -5 5 -7 10 -4 6 3 10 8 10 11 0 2 -4 4 -10 4 -5 0
-10 -5 -10 -11z"/>
<path d="M11170 6140 c0 -5 5 -10 10 -10 6 0 10 5 10 10 0 6 -4 10 -10 10 -5
0 -10 -4 -10 -10z"/>
<path d="M11583 5914 c-15 -16 -16 -24 -4 -24 8 0 24 30 19 35 -2 2 -9 -3 -15
-11z"/>
<path d="M11596 5867 c3 -10 9 -15 12 -12 3 3 0 11 -7 18 -10 9 -11 8 -5 -6z"/>
<path d="M11645 5740 c3 -5 8 -10 11 -10 2 0 4 5 4 10 0 6 -5 10 -11 10 -5 0
-7 -4 -4 -10z"/>
<path d="M11676 5547 c3 -10 9 -15 12 -12 3 3 0 11 -7 18 -10 9 -11 8 -5 -6z"/>
<path d="M5922 10296 c8 -10 117 -35 148 -35 21 0 18 3 -13 14 -43 16 -146 32
-135 21z"/>
<path d="M6125 10246 c17 -8 32 -12 34 -10 7 7 -3 12 -34 18 l-30 6 30 -14z"/>
<path d="M6180 10230 c0 -5 5 -10 11 -10 5 0 7 5 4 10 -3 6 -8 10 -11 10 -2 0
-4 -4 -4 -10z"/>
<path d="M6530 10086 c0 -2 7 -7 16 -10 8 -3 12 -2 9 4 -6 10 -25 14 -25 6z"/>
<path d="M6630 10030 c0 -5 5 -10 11 -10 5 0 7 5 4 10 -3 6 -8 10 -11 10 -2 0
-4 -4 -4 -10z"/>
<path d="M6678 9990 c12 -11 26 -20 33 -20 16 0 69 -46 62 -54 -4 -3 1 -6 10
-6 27 0 20 14 -20 46 -58 45 -127 73 -85 34z"/>
<path d="M6660 9970 c0 -5 5 -10 11 -10 5 0 7 5 4 10 -3 6 -8 10 -11 10 -2 0
-4 -4 -4 -10z"/>
<path d="M6710 9950 c0 -5 5 -10 11 -10 5 0 7 5 4 10 -3 6 -8 10 -11 10 -2 0
-4 -4 -4 -10z"/>
<path d="M6802 9908 c-13 -13 -16 -32 -4 -24 5 3 16 -6 26 -19 11 -15 24 -21
34 -18 9 4 13 2 9 -4 -4 -6 -1 -15 6 -21 9 -8 12 -4 12 16 0 24 -42 73 -54 64
-2 -2 -7 1 -10 7 -5 8 -11 7 -19 -1z"/>
<path d="M19975 9820 c-3 -5 -1 -10 4 -10 6 0 11 5 11 10 0 6 -2 10 -4 10 -3
0 -8 -4 -11 -10z"/>
<path d="M6790 9792 c0 -5 6 -15 14 -22 8 -6 12 -19 9 -27 -5 -12 -2 -15 10
-10 9 3 17 2 17 -3 0 -6 7 -10 15 -10 8 0 15 -6 15 -14 0 -13 28 -31 36 -23 2
2 -23 29 -56 61 -33 32 -60 54 -60 48z"/>
<path d="M6760 9781 c0 -6 6 -11 13 -11 8 0 7 -4 -3 -10 -9 -6 -10 -10 -3 -10
19 0 24 17 8 30 -10 9 -15 9 -15 1z"/>
<path d="M6725 9760 c-3 -6 1 -7 9 -4 18 7 21 14 7 14 -6 0 -13 -4 -16 -10z"/>
<path d="M6947 9759 c7 -7 15 -10 18 -7 3 3 -2 9 -12 12 -14 6 -15 5 -6 -5z"/>
<path d="M6795 9711 c-3 -5 -1 -12 5 -16 5 -3 10 1 10 9 0 18 -6 21 -15 7z"/>
<path d="M6834 9695 c3 -8 0 -15 -6 -15 -6 0 -9 -2 -6 -5 3 -3 12 -3 21 1 16
6 12 34 -5 34 -6 0 -8 -7 -4 -15z"/>
<path d="M6920 9657 c0 -9 7 -17 15 -17 8 0 15 -7 15 -15 0 -8 5 -15 12 -15 6
0 9 -3 5 -6 -5 -5 40 -54 50 -54 2 0 -1 9 -7 20 -6 11 -15 20 -20 20 -6 0 -10
6 -10 13 0 7 -13 26 -30 42 -23 22 -30 25 -30 12z"/>
<path d="M6895 9650 c3 -5 8 -10 11 -10 2 0 4 5 4 10 0 6 -5 10 -11 10 -5 0
-7 -4 -4 -10z"/>
<path d="M6825 9600 c3 -5 8 -10 11 -10 2 0 4 5 4 10 0 6 -5 10 -11 10 -5 0
-7 -4 -4 -10z"/>
<path d="M6960 9561 c0 -5 7 -12 16 -15 14 -5 15 -4 4 9 -14 17 -20 19 -20 6z"/>
<path d="M13895 9500 c-3 -5 -1 -10 4 -10 6 0 11 5 11 10 0 6 -2 10 -4 10 -3
0 -8 -4 -11 -10z"/>
<path d="M6962 9465 c2 -14 12 -20 34 -21 30 -1 31 -1 16 17 -15 18 -17 18
-23 2 -5 -16 -7 -15 -18 2 -12 20 -12 20 -9 0z"/>
<path d="M17880 9460 c0 -5 5 -10 11 -10 5 0 7 5 4 10 -3 6 -8 10 -11 10 -2 0
-4 -4 -4 -10z"/>
<path d="M17880 9431 c0 -5 5 -13 10 -16 6 -3 10 -2 10 4 0 5 -4 13 -10 16 -5
3 -10 2 -10 -4z"/>
<path d="M7090 9420 c0 -5 5 -10 10 -10 6 0 10 -7 10 -15 0 -21 -10 -19 -37 7
-13 12 -23 17 -23 10 0 -14 48 -52 66 -52 17 0 18 11 2 45 -11 25 -28 34 -28
15z"/>
<path d="M17880 9385 c0 -8 4 -15 10 -15 5 0 7 7 4 15 -4 8 -8 15 -10 15 -2 0
-4 -7 -4 -15z"/>
<path d="M7131 9353 c-11 -12 -10 -16 5 -27 10 -8 15 -20 11 -29 -3 -9 -2 -19
4 -23 17 -10 18 -1 4 38 -8 26 -9 38 -2 41 7 2 7 6 2 9 -6 3 -16 -1 -24 -9z"/>
<path d="M7082 9344 c10 -10 20 -15 24 -12 3 4 -5 12 -18 18 -22 12 -22 12 -6
-6z"/>
<path d="M13895 9340 c-3 -5 -1 -10 4 -10 6 0 11 5 11 10 0 6 -2 10 -4 10 -3
0 -8 -4 -11 -10z"/>
<path d="M17885 9340 c3 -5 11 -10 16 -10 6 0 7 5 4 10 -3 6 -11 10 -16 10 -6
0 -7 -4 -4 -10z"/>
<path d="M4030 9330 l-105 -5 0 -77 c0 -43 2 -395 3 -783 l2 -705 563 1 c309
1 605 5 658 10 132 12 296 52 382 94 155 75 298 215 376 365 63 121 75 176 75
325 -1 111 -5 143 -27 217 -45 149 -111 260 -194 325 -134 105 -202 145 -314
182 -161 54 -246 60 -809 58 -278 -1 -552 -4 -610 -7z m88 -584 c7 -4 12 -2
12 4 0 6 5 8 11 5 16 -11 69 -12 69 -2 0 4 5 5 11 2 6 -4 70 -9 142 -11 160
-5 200 -9 217 -19 9 -6 11 -4 5 5 -5 9 -4 11 3 6 7 -4 31 -9 54 -12 63 -7 184
-33 258 -57 86 -27 238 -93 257 -113 9 -8 26 -22 39 -31 33 -21 127 -139 159
-198 51 -95 66 -165 69 -314 l1 -74 -41 -17 c-51 -22 -162 -46 -274 -60 -47
-6 -304 -14 -572 -17 -415 -5 -488 -4 -489 8 -3 84 3 826 7 860 6 41 9 47 29
45 12 -2 27 -6 33 -10z"/>
<path d="M7066 9315 c3 -7 16 -21 29 -29 21 -14 24 -14 29 1 4 9 2 21 -4 27
-8 8 -9 6 -5 -6 4 -11 2 -18 -4 -18 -6 0 -11 3 -11 8 0 4 -9 13 -20 19 -16 11
-18 10 -14 -2z"/>
<path d="M7043 9292 c1 -12 6 -18 15 -15 7 3 10 9 5 12 -4 3 -11 10 -15 15 -4
4 -6 -1 -5 -12z"/>
<path d="M7170 9291 c0 -6 6 -11 13 -11 7 0 8 -3 2 -8 -22 -16 -34 -49 -22
-62 9 -10 7 -11 -10 -6 -12 4 -24 2 -28 -3 -3 -6 0 -8 8 -5 8 3 24 -4 35 -16
18 -20 20 -20 26 -3 6 15 10 12 23 -15 20 -41 27 -36 10 7 -10 27 -16 31 -37
27 -25 -5 -25 -5 -2 6 24 12 28 23 12 33 -6 4 -8 15 -5 24 3 10 -1 24 -10 31
-10 8 -15 9 -15 1z m20 -60 c0 -6 -4 -13 -10 -16 -5 -3 -10 1 -10 9 0 9 5 16
10 16 6 0 10 -4 10 -9z"/>
<path d="M6956 9267 c3 -10 9 -15 12 -12 3 3 0 11 -7 18 -10 9 -11 8 -5 -6z"/>
<path d="M17880 9271 c0 -5 5 -13 10 -16 6 -3 10 -2 10 4 0 5 -4 13 -10 16 -5
3 -10 2 -10 -4z"/>
<path d="M6890 9252 c0 -4 10 -13 23 -21 22 -14 22 -14 3 8 -20 22 -26 25 -26
13z"/>
<path d="M6995 9224 c9 -9 19 -13 23 -10 3 4 0 11 -8 16 -24 15 -33 11 -15 -6z"/>
<path d="M7110 9230 c0 -5 5 -10 11 -10 5 0 7 5 4 10 -3 6 -8 10 -11 10 -2 0
-4 -4 -4 -10z"/>
<path d="M17880 9220 c0 -5 5 -10 11 -10 5 0 7 5 4 10 -3 6 -8 10 -11 10 -2 0
-4 -4 -4 -10z"/>
<path d="M7150 9110 c13 -9 13 -11 0 -19 -8 -6 -11 -13 -8 -17 4 -3 15 1 24
11 15 14 15 18 3 26 -8 5 -18 9 -24 9 -5 0 -3 -5 5 -10z"/>
<path d="M7210 9106 c0 -8 -3 -23 -7 -33 -6 -17 -6 -17 10 -1 19 19 22 34 7
43 -5 3 -10 0 -10 -9z"/>
<path d="M7237 9075 c-4 -8 -2 -15 3 -15 6 0 10 -5 10 -11 0 -6 -7 -8 -17 -5
-15 6 -15 4 2 -14 24 -27 26 -26 20 16 -5 43 -10 51 -18 29z"/>
<path d="M7165 9060 c-3 -5 -1 -10 4 -10 6 0 11 5 11 10 0 6 -2 10 -4 10 -3 0
-8 -4 -11 -10z"/>
<path d="M7205 9020 c3 -5 8 -10 11 -10 2 0 4 5 4 10 0 6 -5 10 -11 10 -5 0
-7 -4 -4 -10z"/>
<path d="M7060 9006 c0 -2 8 -10 18 -17 15 -13 16 -12 3 4 -13 16 -21 21 -21
13z"/>
<path d="M7168 8981 c-15 -18 -14 -19 6 -17 17 1 22 6 18 19 -5 21 -4 21 -24
-2z"/>
<path d="M7230 8990 c0 -5 5 -10 11 -10 5 0 7 5 4 10 -3 6 -8 10 -11 10 -2 0
-4 -4 -4 -10z"/>
<path d="M7256 8963 c-6 -14 -5 -15 5 -6 7 7 10 15 7 18 -3 3 -9 -2 -12 -12z"/>
<path d="M7218 8963 c7 -3 16 -2 19 1 4 3 -2 6 -13 5 -11 0 -14 -3 -6 -6z"/>
<path d="M7170 8860 c0 -5 5 -10 11 -10 5 0 7 5 4 10 -3 6 -8 10 -11 10 -2 0
-4 -4 -4 -10z"/>
<path d="M7218 8865 c-4 -4 -2 -15 4 -25 9 -14 9 -22 -1 -34 -16 -19 -5 -22
12 -3 22 23 38 57 27 57 -5 0 -10 -4 -10 -10 0 -16 -18 -11 -22 6 -2 9 -6 13
-10 9z"/>
<path d="M7080 8820 c0 -5 5 -10 11 -10 5 0 7 5 4 10 -3 6 -8 10 -11 10 -2 0
-4 -4 -4 -10z"/>
<path d="M7172 8814 c10 -10 20 -16 22 -13 3 3 -5 11 -17 18 -21 13 -21 12 -5
-5z"/>
<path d="M20845 8780 c3 -5 8 -10 11 -10 2 0 4 5 4 10 0 6 -5 10 -11 10 -5 0
-7 -4 -4 -10z"/>
<path d="M7125 8770 c3 -5 8 -10 11 -10 2 0 4 5 4 10 0 6 -5 10 -11 10 -5 0
-7 -4 -4 -10z"/>
<path d="M7060 8766 c0 -2 8 -10 18 -17 15 -13 16 -12 3 4 -13 16 -21 21 -21
13z"/>
<path d="M7250 8746 c0 -8 6 -16 13 -19 6 -2 9 -8 5 -12 -4 -4 -16 3 -27 16
-11 13 -23 20 -27 16 -5 -4 -2 -12 6 -17 8 -6 11 -10 6 -10 -5 0 3 -11 18 -25
15 -14 29 -25 30 -25 3 0 3 15 -3 78 -1 17 -21 15 -21 -2z"/>
<path d="M7161 8724 c-12 -14 -11 -16 10 -10 13 3 18 3 12 0 -7 -3 -13 -12
-13 -19 0 -7 6 -15 13 -18 10 -4 10 -7 0 -18 -10 -10 -13 -10 -13 0 0 7 -6 19
-14 26 -12 12 -13 10 -11 -16 1 -16 6 -33 10 -37 5 -4 5 -2 2 4 -7 13 40 14
60 1 6 -4 21 -3 33 1 22 8 22 9 -11 42 -19 18 -34 38 -34 44 0 17 -29 17 -44
0z m69 -66 c0 -6 -6 -5 -15 2 -8 7 -15 14 -15 16 0 2 7 1 15 -2 8 -4 15 -11
15 -16z"/>
<path d="M7199 8622 c5 -9 18 -25 29 -36 20 -17 20 -46 1 -46 -4 0 -6 7 -3 15
4 8 2 15 -4 15 -13 0 -23 -27 -16 -45 4 -8 12 -15 20 -15 8 0 14 -4 14 -10 0
-22 -28 -8 -40 20 -7 16 -21 32 -31 35 -10 4 -25 13 -33 21 -13 12 -15 12 -13
-5 0 -10 6 -17 12 -15 13 5 27 -6 43 -33 15 -28 2 -30 -18 -3 -19 26 -34 26
-18 0 11 -17 11 -22 0 -29 -8 -5 4 -8 30 -8 24 0 50 -3 60 -7 13 -6 16 -2 14
23 -1 17 1 31 6 31 4 0 8 12 8 28 0 18 -10 37 -31 55 -36 31 -43 34 -30 9z"/>
<path d="M7130 8611 c5 -11 23 -29 39 -40 l30 -21 6 21 c8 24 -2 39 -14 21 -5
-9 -15 -6 -35 13 -32 30 -40 32 -26 6z"/>
<path d="M7170 8620 c0 -5 5 -10 11 -10 5 0 7 5 4 10 -3 6 -8 10 -11 10 -2 0
-4 -4 -4 -10z"/>
<path d="M7067 8559 c7 -7 15 -10 18 -7 3 3 -2 9 -12 12 -14 6 -15 5 -6 -5z"/>
<path d="M7180 8470 c-11 -7 -11 -11 -1 -24 7 -9 11 -22 8 -30 -4 -10 -1 -13
7 -10 15 6 18 -25 4 -43 -5 -7 -6 -18 -2 -24 5 -8 12 2 19 27 6 21 8 41 5 44
-4 3 -13 16 -20 30 -10 21 -10 23 1 13 16 -15 29 -17 29 -3 0 15 -35 29 -50
20z"/>
<path d="M7050 8450 c0 -5 5 -10 10 -10 6 0 10 5 10 10 0 6 -4 10 -10 10 -5 0
-10 -4 -10 -10z"/>
<path d="M6912 8430 c7 -11 17 -20 22 -20 5 0 1 9 -9 20 -10 11 -20 20 -22 20
-2 0 2 -9 9 -20z"/>
<path d="M7010 8386 c0 -4 7 -14 15 -22 8 -9 15 -11 15 -6 0 5 -7 15 -15 22
-8 7 -15 9 -15 6z"/>
<path d="M7070 8321 c0 -13 29 -35 37 -28 3 4 -2 9 -11 13 -9 3 -13 10 -10 15
3 5 0 9 -5 9 -6 0 -11 -4 -11 -9z"/>
<path d="M7180 8320 c10 -6 11 -10 3 -10 -7 0 -13 -8 -13 -17 1 -17 2 -16 15
1 15 20 12 36 -8 36 -7 0 -6 -4 3 -10z"/>
<path d="M7009 8296 c14 -14 27 -26 29 -26 10 0 -26 44 -39 48 -8 3 -3 -7 10
-22z"/>
<path d="M6930 8300 c0 -5 5 -10 11 -10 5 0 7 5 4 10 -3 6 -8 10 -11 10 -2 0
-4 -4 -4 -10z"/>
<path d="M7051 8288 c2 -2 20 -16 39 -33 l35 -30 -29 33 c-17 17 -34 32 -40
32 -5 0 -7 -1 -5 -2z"/>
<path d="M7120 8260 c6 -11 15 -20 20 -20 6 0 2 9 -7 20 -10 11 -19 20 -21 20
-1 0 2 -9 8 -20z"/>
<path d="M6880 8261 c0 -10 19 -25 25 -20 1 2 -3 10 -11 17 -8 7 -14 8 -14 3z"/>
<path d="M7010 8220 c0 -5 5 -10 11 -10 5 0 7 5 4 10 -3 6 -8 10 -11 10 -2 0
-4 -4 -4 -10z"/>
<path d="M7090 8220 c0 -5 5 -10 11 -10 5 0 7 5 4 10 -3 6 -8 10 -11 10 -2 0
-4 -4 -4 -10z"/>
<path d="M6910 8216 c0 -2 8 -10 18 -17 15 -13 16 -12 3 4 -13 16 -21 21 -21
13z"/>
<path d="M6995 8190 c10 -11 20 -20 23 -20 3 0 -3 9 -13 20 -10 11 -20 20 -23
20 -3 0 3 -9 13 -20z"/>
<path d="M6970 8166 c0 -2 7 -7 16 -10 8 -3 12 -2 9 4 -6 10 -25 14 -25 6z"/>
<path d="M7055 8160 c3 -5 8 -10 11 -10 2 0 4 5 4 10 0 6 -5 10 -11 10 -5 0
-7 -4 -4 -10z"/>
<path d="M6900 8126 c0 -2 8 -10 18 -17 15 -13 16 -12 3 4 -13 16 -21 21 -21
13z"/>
<path d="M6980 8126 c0 -2 8 -10 18 -17 15 -13 16 -12 3 4 -13 16 -21 21 -21
13z"/>
<path d="M7031 8073 c7 -8 15 -10 18 -6 4 4 10 11 14 14 4 4 -4 7 -18 7 -21 0
-23 -3 -14 -15z"/>
<path d="M6970 7970 c0 -5 5 -10 11 -10 5 0 7 5 4 10 -3 6 -8 10 -11 10 -2 0
-4 -4 -4 -10z"/>
<path d="M6925 7880 c3 -5 8 -10 11 -10 2 0 4 5 4 10 0 6 -5 10 -11 10 -5 0
-7 -4 -4 -10z"/>
<path d="M6840 7779 c0 -5 5 -7 10 -4 6 3 10 8 10 11 0 2 -4 4 -10 4 -5 0 -10
-5 -10 -11z"/>
<path d="M6740 7760 c0 -5 5 -10 11 -10 5 0 7 5 4 10 -3 6 -8 10 -11 10 -2 0
-4 -4 -4 -10z"/>
<path d="M6590 7654 c0 -3 7 -12 15 -20 16 -17 18 -14 9 10 -6 15 -24 23 -24
10z"/>
<path d="M6474 7569 c-3 -6 -2 -15 3 -20 5 -5 9 -1 9 11 0 23 -2 24 -12 9z"/>
<path d="M6525 7540 c3 -5 8 -10 11 -10 2 0 4 5 4 10 0 6 -5 10 -11 10 -5 0
-7 -4 -4 -10z"/>
<path d="M6410 7246 c0 -2 7 -7 16 -10 8 -3 12 -2 9 4 -6 10 -25 14 -25 6z"/>
<path d="M6700 7236 c0 -2 7 -7 16 -10 8 -3 12 -2 9 4 -6 10 -25 14 -25 6z"/>
<path d="M6415 7200 c3 -5 8 -10 11 -10 2 0 4 5 4 10 0 6 -5 10 -11 10 -5 0
-7 -4 -4 -10z"/>
<path d="M6835 7150 c-3 -5 -1 -10 4 -10 6 0 11 5 11 10 0 6 -2 10 -4 10 -3 0
-8 -4 -11 -10z"/>
<path d="M6770 7100 c0 -5 5 -10 11 -10 5 0 7 5 4 10 -3 6 -8 10 -11 10 -2 0
-4 -4 -4 -10z"/>
<path d="M6591 7073 c7 -12 15 -20 18 -17 3 2 -3 12 -13 22 -17 16 -18 16 -5
-5z"/>
<path d="M6750 7072 c6 -13 14 -21 18 -18 3 4 -2 14 -12 24 -18 16 -18 16 -6
-6z"/>
<path d="M6560 7061 c0 -10 19 -25 25 -20 1 2 -3 10 -11 17 -8 7 -14 8 -14 3z"/>
<path d="M6516 7041 c-7 -11 22 -36 31 -28 3 4 -2 9 -11 13 -9 3 -13 10 -10
15 3 5 3 9 0 9 -3 0 -7 -4 -10 -9z"/>
<path d="M6525 6980 c3 -5 8 -10 11 -10 2 0 4 5 4 10 0 6 -5 10 -11 10 -5 0
-7 -4 -4 -10z"/>
<path d="M6626 6943 c-6 -14 -5 -15 5 -6 7 7 10 15 7 18 -3 3 -9 -2 -12 -12z"/>
<path d="M6517 6935 c-15 -11 -16 -14 -2 -25 13 -11 14 -10 9 3 -3 10 1 17 13
19 10 2 13 6 8 10 -6 3 -18 0 -28 -7z"/>
<path d="M6865 6917 c10 -15 20 -25 23 -22 3 3 -5 16 -17 28 l-23 22 17 -28z"/>
<path d="M6560 6900 c6 -11 13 -20 16 -20 2 0 0 9 -6 20 -6 11 -13 20 -16 20
-2 0 0 -9 6 -20z"/>
<path d="M6270 6876 c0 -2 7 -9 15 -16 13 -11 14 -10 9 4 -5 14 -24 23 -24 12z"/>
<path d="M4485 6830 l-560 -5 3 -755 c2 -415 6 -758 9 -763 2 -4 359 -6 791
-3 849 5 889 7 1057 60 162 51 354 194 437 326 101 159 135 380 87 555 -12 44
-31 98 -42 120 -12 22 -20 47 -18 55 2 8 -1 12 -5 8 -4 -5 -22 13 -39 40 -31
45 -130 144 -171 169 -114 72 -171 100 -260 128 -145 48 -235 63 -387 65 -73
1 -179 3 -237 3 -58 1 -357 0 -665 -3z m-330 -544 c33 1 66 -3 73 -9 6 -5 12
-6 12 -1 0 11 51 12 68 1 7 -5 12 -4 12 3 0 7 6 8 17 2 9 -6 29 -6 45 -2 15 5
30 5 32 1 3 -4 33 -6 68 -5 37 2 68 -2 77 -9 11 -9 13 -9 8 0 -5 8 3 11 25 11
18 0 37 -3 42 -6 15 -9 136 -8 136 1 0 4 8 3 19 -2 10 -6 21 -8 24 -5 3 3 14
1 25 -5 15 -8 22 -8 26 2 5 9 7 9 12 -2 5 -11 8 -11 14 0 7 10 11 10 24 0 9
-7 24 -10 37 -6 12 4 19 3 16 -2 -3 -5 13 -8 36 -7 23 1 51 -3 62 -9 19 -10
19 -9 5 8 -13 17 -11 17 23 -3 20 -12 37 -16 37 -11 0 7 11 4 26 -6 18 -12 29
-14 33 -6 5 8 13 7 27 -4 10 -8 32 -15 47 -15 16 0 26 -4 23 -8 -3 -5 11 -8
30 -7 20 0 38 -3 40 -7 3 -5 10 -5 16 -2 6 4 8 2 5 -3 -8 -12 20 -26 34 -17 5
3 9 0 9 -6 0 -6 4 -9 8 -6 5 3 22 -8 37 -24 15 -16 32 -27 36 -24 10 6 40 -20
151 -129 49 -48 86 -92 83 -98 -4 -5 8 -27 25 -49 17 -22 29 -44 25 -50 -3 -5
-2 -10 2 -10 5 0 9 -8 9 -17 1 -10 5 -27 9 -38 8 -19 7 -19 -11 -5 -18 14 -18
14 -5 -2 7 -10 11 -18 7 -18 -4 0 1 -11 10 -25 10 -16 12 -25 5 -25 -8 0 -9
-5 -2 -19 6 -10 8 -21 4 -24 -3 -4 0 -13 7 -22 11 -14 7 -19 -12 -16 -14 2 -8
-17 7 -23 27 -10 16 -23 -43 -49 -69 -31 -194 -62 -312 -77 -50 -6 -354 -11
-743 -13 l-658 -2 -6 24 c-8 31 4 853 13 875 4 10 11 13 18 8 6 -4 38 -7 71
-6z"/>
<path d="M6500 6800 c0 -5 5 -10 10 -10 6 0 10 5 10 10 0 6 -4 10 -10 10 -5 0
-10 -4 -10 -10z"/>
<path d="M6450 6780 c0 -5 5 -10 11 -10 5 0 7 5 4 10 -3 6 -8 10 -11 10 -2 0
-4 -4 -4 -10z"/>
<path d="M6420 6766 c0 -2 8 -10 18 -17 15 -13 16 -12 3 4 -13 16 -21 21 -21
13z"/>
<path d="M6420 6720 c0 -5 5 -10 11 -10 5 0 7 5 4 10 -3 6 -8 10 -11 10 -2 0
-4 -4 -4 -10z"/>
<path d="M6668 6718 c12 -6 22 -17 22 -25 0 -7 5 -13 10 -13 6 0 10 4 10 9 0
12 -40 41 -55 40 -5 0 0 -5 13 -11z"/>
<path d="M6030 6671 c0 -5 5 -13 10 -16 6 -3 10 -2 10 4 0 5 -4 13 -10 16 -5
3 -10 2 -10 -4z"/>
<path d="M6602 6600 c7 -10 14 -18 15 -16 6 6 -9 36 -18 36 -5 0 -4 -9 3 -20z"/>
<path d="M6205 6580 c-3 -5 -1 -10 4 -10 6 0 11 5 11 10 0 6 -2 10 -4 10 -3 0
-8 -4 -11 -10z"/>
<path d="M6690 6540 c0 -5 5 -10 11 -10 5 0 7 5 4 10 -3 6 -8 10 -11 10 -2 0
-4 -4 -4 -10z"/>
<path d="M6660 6526 c0 -2 8 -10 18 -17 15 -13 16 -12 3 4 -13 16 -21 21 -21
13z"/>
<path d="M6623 6513 c-7 -2 -13 -9 -13 -15 0 -7 5 -7 13 1 8 6 18 7 22 3 5 -4
5 -1 1 6 -4 6 -8 12 -9 11 -1 0 -8 -3 -14 -6z"/>
<path d="M6710 6430 c0 -5 5 -10 10 -10 6 0 10 5 10 10 0 6 -4 10 -10 10 -5 0
-10 -4 -10 -10z"/>
<path d="M6737 6414 c-22 -29 -22 -28 67 -119 35 -35 61 -54 64 -47 2 7 8 10
13 6 5 -3 9 2 9 11 0 11 -6 15 -18 11 -20 -7 -142 97 -129 110 4 4 20 -4 35
-19 22 -21 31 -24 40 -15 7 7 12 17 12 23 0 12 -49 39 -57 31 -2 -2 5 -7 16
-11 21 -6 30 -25 12 -25 -15 0 -36 32 -33 52 4 25 -10 22 -31 -8z"/>
<path d="M6810 6327 c0 -2 14 -13 30 -25 21 -16 30 -19 30 -9 0 8 -11 19 -25
25 -27 12 -35 14 -35 9z"/>
<path d="M6760 6316 c0 -2 8 -10 18 -17 15 -13 16 -12 3 4 -13 16 -21 21 -21
13z"/>
<path d="M13800 6260 c0 -5 5 -10 10 -10 6 0 10 5 10 10 0 6 -4 10 -10 10 -5
0 -10 -4 -10 -10z"/>
<path d="M6486 6231 c-4 -5 3 -7 14 -4 23 6 26 13 6 13 -8 0 -17 -4 -20 -9z"/>
<path d="M6370 6220 c0 -5 5 -10 11 -10 5 0 7 5 4 10 -3 6 -8 10 -11 10 -2 0
-4 -4 -4 -10z"/>
<path d="M6537 6169 c7 -7 15 -10 18 -7 3 3 -2 9 -12 12 -14 6 -15 5 -6 -5z"/>
<path d="M6505 6160 c3 -5 11 -10 16 -10 6 0 7 5 4 10 -3 6 -11 10 -16 10 -6
0 -7 -4 -4 -10z"/>
<path d="M6450 6140 c0 -5 5 -10 11 -10 5 0 7 5 4 10 -3 6 -8 10 -11 10 -2 0
-4 -4 -4 -10z"/>
<path d="M6502 6120 c11 -17 10 -22 -2 -30 -9 -6 -10 -10 -3 -10 6 0 21 14 33
30 12 17 17 30 12 30 -6 0 -13 -6 -16 -12 -5 -10 -7 -10 -12 0 -3 6 -10 12
-15 12 -5 0 -4 -9 3 -20z"/>
<path d="M6432 6110 c7 -11 17 -20 22 -20 5 0 1 9 -9 20 -10 11 -20 20 -22 20
-2 0 2 -9 9 -20z"/>
<path d="M6470 6110 c0 -5 5 -10 11 -10 5 0 7 5 4 10 -3 6 -8 10 -11 10 -2 0
-4 -4 -4 -10z"/>
<path d="M13810 6095 c7 -9 15 -13 17 -11 7 7 -7 26 -19 26 -6 0 -6 -6 2 -15z"/>
<path d="M6356 5866 c3 -9 13 -16 22 -16 8 0 13 1 11 3 -2 1 -12 9 -22 16 -15
12 -17 12 -11 -3z"/>
<path d="M6385 5778 c-4 -10 -14 -18 -22 -18 -12 0 -12 -2 1 -15 19 -19 30
-19 23 -1 -3 8 -1 16 5 18 6 2 9 11 6 19 -5 11 -7 11 -13 -3z"/>
<path d="M6481 5734 c0 -11 3 -14 6 -6 3 7 2 16 -1 19 -3 4 -6 -2 -5 -13z"/>
<path d="M6327 5683 c-3 -5 6 -9 20 -10 19 -1 22 1 12 8 -17 11 -26 11 -32 2z"/>
<path d="M6382 5683 c5 -24 -16 -42 -43 -38 -28 3 -39 -8 -19 -20 6 -3 10 -2
10 3 0 5 14 9 30 9 18 0 30 -6 30 -14 0 -7 5 -13 11 -13 7 0 8 7 4 18 -4 9
-10 23 -13 31 -4 10 -1 12 9 6 12 -8 12 -6 0 8 -14 18 -22 22 -19 10z"/>
<path d="M6280 5660 c0 -5 5 -10 10 -10 6 0 10 5 10 10 0 6 -4 10 -10 10 -5 0
-10 -4 -10 -10z"/>
<path d="M6273 5616 c-16 -19 -4 -29 13 -11 8 7 14 16 14 19 0 10 -15 6 -27
-8z"/>
<path d="M6317 5565 c-4 -9 -3 -14 2 -10 5 3 11 0 13 -7 3 -9 10 -8 22 5 10
10 15 21 12 25 -4 3 -11 0 -17 -8 -7 -12 -11 -13 -18 -2 -7 11 -9 10 -14 -3z"/>
<path d="M6260 5561 c0 -5 7 -12 16 -15 14 -5 15 -4 4 9 -14 17 -20 19 -20 6z"/>
<path d="M6370 5490 c0 -5 5 -10 10 -10 6 0 10 5 10 10 0 6 -4 10 -10 10 -5 0
-10 -4 -10 -10z"/>
<path d="M6188 5470 c12 -11 24 -20 28 -20 4 0 -1 9 -11 20 -10 11 -23 20 -28
20 -6 0 -1 -9 11 -20z"/>
<path d="M6140 5471 c0 -5 7 -11 15 -15 8 -3 15 -1 15 3 0 5 -7 11 -15 15 -8
3 -15 1 -15 -3z"/>
<path d="M6090 5461 c0 -6 -9 -8 -20 -6 -11 2 -20 -1 -20 -7 0 -5 7 -8 14 -5
10 4 13 1 9 -8 -3 -8 -9 -12 -14 -9 -15 9 -10 -6 8 -24 16 -16 16 -16 10 1 -3
9 -2 17 3 17 6 0 10 7 10 16 0 12 6 15 21 11 16 -4 18 -3 8 9 -13 16 -29 19
-29 5z"/>
<path d="M6035 5390 c10 -11 20 -20 23 -20 3 0 -3 9 -13 20 -10 11 -20 20 -23
20 -3 0 3 -9 13 -20z"/>
<path d="M6180 5406 c0 -2 8 -10 18 -17 15 -13 16 -12 3 4 -13 16 -21 21 -21
13z"/>
<path d="M6115 5390 c-3 -5 -1 -10 4 -10 6 0 11 5 11 10 0 6 -2 10 -4 10 -3 0
-8 -4 -11 -10z"/>
<path d="M5990 5358 c0 -4 -8 -8 -17 -8 -14 0 -15 -2 -4 -12 11 -11 14 -10 18
0 3 6 8 10 11 8 4 -2 13 2 19 9 10 11 9 13 -7 12 -11 -1 -20 -5 -20 -9z"/>
<path d="M6090 5366 c0 -2 7 -7 16 -10 8 -3 12 -2 9 4 -6 10 -25 14 -25 6z"/>
<path d="M6270 5359 c0 -5 5 -7 10 -4 6 3 10 8 10 11 0 2 -4 4 -10 4 -5 0 -10
-5 -10 -11z"/>
<path d="M5897 5343 c-4 -3 -7 -11 -7 -17 0 -6 5 -5 12 2 6 6 9 14 7 17 -3 3
-9 2 -12 -2z"/>
<path d="M6019 5246 c12 -14 11 -42 -2 -63 -4 -6 -3 -14 2 -17 5 -4 12 0 15 6
5 10 7 10 12 1 10 -22 22 -14 34 22 10 30 9 37 -6 52 -16 16 -16 16 -10 -4 7
-20 -18 -52 -31 -39 -3 3 -1 6 5 6 16 0 15 18 -2 36 -19 18 -32 18 -17 0z"/>
<path d="M6180 5181 c-30 -28 -39 -51 -20 -51 6 0 10 5 10 11 0 6 7 17 15 25
13 14 17 14 31 -1 13 -12 14 -19 5 -28 -8 -8 -11 -7 -11 6 0 9 -4 17 -10 17
-20 0 -9 -27 15 -38 34 -15 32 -17 32 18 0 17 -3 28 -5 25 -3 -3 -11 3 -18 13
-9 13 -9 19 -1 24 9 6 9 8 -1 8 -7 0 -26 -13 -42 -29z"/>
<path d="M6406 5172 c3 -10 20 -27 37 -37 l32 -19 -16 24 c-8 13 -25 30 -36
37 -20 13 -21 13 -17 -5z"/>
<path d="M6280 5160 c0 -5 5 -10 10 -10 6 0 10 5 10 10 0 6 -4 10 -10 10 -5 0
-10 -4 -10 -10z"/>
<path d="M5756 5135 c-9 -26 -7 -32 5 -12 6 10 9 21 6 23 -2 3 -7 -2 -11 -11z"/>
<path d="M6123 5123 c-16 -6 -17 -35 -3 -49 6 -6 12 -22 13 -35 2 -23 32 -78
51 -90 5 -4 5 -12 1 -19 -6 -9 -9 -9 -16 1 -5 8 -9 10 -9 4 0 -5 4 -16 9 -24
8 -12 12 -12 25 -2 21 17 20 23 -5 50 -12 12 -23 38 -24 56 -3 32 -2 33 21 23
13 -6 24 -15 24 -20 0 -4 5 -8 12 -8 6 0 3 10 -8 22 l-19 22 30 -19 c26 -16
25 -13 -14 31 -24 27 -47 48 -52 47 -5 -2 -9 2 -9 7 0 11 -7 12 -27 3z m65
-68 c-3 -3 -13 7 -23 22 l-17 28 23 -22 c12 -12 20 -25 17 -28z"/>
<path d="M5890 5090 c0 -5 5 -10 10 -10 6 0 10 5 10 10 0 6 -4 10 -10 10 -5 0
-10 -4 -10 -10z"/>
<path d="M6170 5019 c0 -6 8 -18 17 -27 16 -16 16 -16 10 1 -4 10 -7 23 -7 28
0 5 -4 9 -10 9 -5 0 -10 -5 -10 -11z"/>
<path d="M5940 5006 c0 -2 8 -10 18 -17 15 -13 16 -12 3 4 -13 16 -21 21 -21
13z"/>
<path d="M5680 4980 c6 -11 15 -20 20 -20 6 0 2 9 -7 20 -10 11 -19 20 -21 20
-1 0 2 -9 8 -20z"/>
<path d="M6310 4991 c0 -5 5 -13 10 -16 6 -3 10 -2 10 4 0 5 -4 13 -10 16 -5
3 -10 2 -10 -4z"/>
<path d="M6105 4950 c-10 -11 -15 -20 -11 -20 11 0 39 30 34 36 -3 2 -13 -5
-23 -16z"/>
<path d="M6130 4929 c0 -5 5 -7 10 -4 6 3 10 8 10 11 0 2 -4 4 -10 4 -5 0 -10
-5 -10 -11z"/>
<path d="M5931 4927 c2 -1 13 -9 24 -17 19 -14 19 -14 6 3 -7 9 -18 17 -24 17
-6 0 -8 -1 -6 -3z"/>
<path d="M5890 4860 c0 -5 5 -10 11 -10 5 0 7 5 4 10 -3 6 -8 10 -11 10 -2 0
-4 -4 -4 -10z"/>
<path d="M6255 4830 c-3 -5 -1 -10 4 -10 6 0 11 5 11 10 0 6 -2 10 -4 10 -3 0
-8 -4 -11 -10z"/>
<path d="M6087 4818 c-3 -8 5 -14 19 -14 20 -2 21 0 9 12 -17 17 -22 17 -28 2z"/>
<path d="M6457 4804 c-7 -12 19 -35 28 -26 4 4 4 -4 0 -18 -7 -22 -6 -23 9 -8
25 26 21 41 -10 37 -4 0 -10 5 -14 11 -4 7 -10 8 -13 4z"/>
<path d="M6210 4785 c0 -8 7 -15 15 -15 8 0 15 4 15 9 0 5 -7 11 -15 15 -9 3
-15 0 -15 -9z"/>
<path d="M6156 4773 c-6 -14 -5 -15 5 -6 7 7 10 15 7 18 -3 3 -9 -2 -12 -12z"/>
<path d="M6270 4744 c0 -8 5 -12 10 -9 6 3 10 10 10 16 0 5 -4 9 -10 9 -5 0
-10 -7 -10 -16z"/>
<path d="M6188 4738 c9 -9 15 -9 24 0 9 9 7 12 -12 12 -19 0 -21 -3 -12 -12z"/>
<path d="M6210 4701 c0 -6 5 -13 10 -16 6 -3 10 -11 10 -17 0 -6 -11 -3 -25 6
-25 17 -25 16 -13 -4 14 -22 13 -21 43 -25 11 -2 29 -6 40 -9 17 -6 16 -5 -2
5 -12 6 -27 24 -34 40 -11 28 -29 40 -29 20z"/>
<path d="M6390 4700 c0 -5 5 -10 10 -10 6 0 10 5 10 10 0 6 -4 10 -10 10 -5 0
-10 -4 -10 -10z"/>
<path d="M6010 4686 c0 -2 7 -7 16 -10 8 -3 12 -2 9 4 -6 10 -25 14 -25 6z"/>
<path d="M6470 4683 c0 -4 5 -15 10 -23 8 -13 10 -13 10 2 0 9 -4 20 -10 23
-5 3 -10 3 -10 -2z"/>
<path d="M6293 4571 l-22 -19 32 3 c18 2 36 3 40 4 8 1 -17 31 -25 31 -2 -1
-13 -9 -25 -19z"/>
<path d="M6130 4540 c0 -5 5 -10 11 -10 5 0 7 5 4 10 -3 6 -8 10 -11 10 -2 0
-4 -4 -4 -10z"/>
<path d="M6240 4460 c0 -5 5 -10 10 -10 6 0 10 5 10 10 0 6 -4 10 -10 10 -5 0
-10 -4 -10 -10z"/>
<path d="M6025 4440 c10 -11 20 -20 23 -20 3 0 -3 9 -13 20 -10 11 -20 20 -23
20 -3 0 3 -9 13 -20z"/>
<path d="M6102 4440 c7 -10 14 -18 15 -16 6 6 -9 36 -18 36 -5 0 -4 -9 3 -20z"/>
<path d="M21015 4380 c-3 -5 -1 -10 4 -10 6 0 11 5 11 10 0 6 -2 10 -4 10 -3
0 -8 -4 -11 -10z"/>
<path d="M5850 4366 c0 -2 7 -7 16 -10 8 -3 12 -2 9 4 -6 10 -25 14 -25 6z"/>
<path d="M17050 3486 c0 -2 7 -7 16 -10 8 -3 12 -2 9 4 -6 10 -25 14 -25 6z"/>
</g>
</svg>
